<?xml version="1.0" encoding="utf-8"?>
<!-- Generator: Adobe Illustrator 25.4.1, SVG Export Plug-In . SVG Version: 6.00 Build 0)  -->
<svg version="1.1" id="Layer_1" xmlns="http://www.w3.org/2000/svg" xmlns:xlink="http://www.w3.org/1999/xlink" x="0px" y="0px"
	 viewBox="0 0 348 104" style="enable-background:new 0 0 348 104;" xml:space="preserve">
<style type="text/css">
	.st0{display:none;}
	.st1{display:inline;fill:#B42322;}
	.st2{display:inline;opacity:0.54;}
	.st3{clip-path:url(#SVGID_00000050635294451833133630000018170794210699338683_);}
	.st4{clip-path:url(#SVGID_00000052065399807437359730000010959259192235490949_);}
	.st5{clip-path:url(#SVGID_00000034805790447119104630000008800022867347231161_);}
	.st6{display:inline;opacity:0.9;}
	.st7{clip-path:url(#SVGID_00000159468213514438412210000012831410278973601426_);}
	.st8{fill-rule:evenodd;clip-rule:evenodd;fill:url(#SVGID_00000168821050277840961220000008474974110027509395_);}
	.st9{fill-rule:evenodd;clip-rule:evenodd;fill:#201D1C;}
	.st10{fill-rule:evenodd;clip-rule:evenodd;fill:#D65231;}
	.st11{fill-rule:evenodd;clip-rule:evenodd;fill:#ACABAD;}
	.st12{fill-rule:evenodd;clip-rule:evenodd;fill:#EDEAE9;}
	.st13{fill-rule:evenodd;clip-rule:evenodd;fill:#CECAC8;}
	.st14{fill-rule:evenodd;clip-rule:evenodd;fill:#C3C0BF;}
	.st15{fill-rule:evenodd;clip-rule:evenodd;fill:#838182;}
	.st16{fill-rule:evenodd;clip-rule:evenodd;fill:#353535;}
	.st17{clip-path:url(#SVGID_00000122700451027878714570000012498998425450808200_);fill:#FED723;}
	.st18{clip-path:url(#SVGID_00000122700451027878714570000012498998425450808200_);fill:#FDD623;}
	.st19{clip-path:url(#SVGID_00000122700451027878714570000012498998425450808200_);fill:#FCD523;}
	.st20{clip-path:url(#SVGID_00000122700451027878714570000012498998425450808200_);fill:#FCD422;}
	.st21{clip-path:url(#SVGID_00000122700451027878714570000012498998425450808200_);fill:#FBD322;}
	.st22{clip-path:url(#SVGID_00000122700451027878714570000012498998425450808200_);fill:#FAD222;}
	.st23{clip-path:url(#SVGID_00000122700451027878714570000012498998425450808200_);fill:#F9D122;}
	.st24{clip-path:url(#SVGID_00000122700451027878714570000012498998425450808200_);fill:#F8D021;}
	.st25{clip-path:url(#SVGID_00000122700451027878714570000012498998425450808200_);fill:#F8CF21;}
	.st26{clip-path:url(#SVGID_00000122700451027878714570000012498998425450808200_);fill:#F7CE21;}
	.st27{clip-path:url(#SVGID_00000122700451027878714570000012498998425450808200_);fill:#F6CD21;}
	.st28{clip-path:url(#SVGID_00000122700451027878714570000012498998425450808200_);fill:#F5CC20;}
	.st29{clip-path:url(#SVGID_00000122700451027878714570000012498998425450808200_);fill:#F4CB20;}
	.st30{clip-path:url(#SVGID_00000122700451027878714570000012498998425450808200_);fill:#F3CA20;}
	.st31{clip-path:url(#SVGID_00000122700451027878714570000012498998425450808200_);fill:#F3C920;}
	.st32{clip-path:url(#SVGID_00000122700451027878714570000012498998425450808200_);fill:#F2C81F;}
	.st33{clip-path:url(#SVGID_00000122700451027878714570000012498998425450808200_);fill:#F1C71F;}
	.st34{clip-path:url(#SVGID_00000122700451027878714570000012498998425450808200_);fill:#F0C61F;}
	.st35{clip-path:url(#SVGID_00000122700451027878714570000012498998425450808200_);fill:#EFC51F;}
	.st36{clip-path:url(#SVGID_00000122700451027878714570000012498998425450808200_);fill:#EFC41E;}
	.st37{clip-path:url(#SVGID_00000122700451027878714570000012498998425450808200_);fill:#EEC31E;}
	.st38{clip-path:url(#SVGID_00000122700451027878714570000012498998425450808200_);fill:#EDC21E;}
	.st39{clip-path:url(#SVGID_00000122700451027878714570000012498998425450808200_);fill:#ECC11E;}
	.st40{clip-path:url(#SVGID_00000122700451027878714570000012498998425450808200_);fill:#EBC01E;}
	.st41{clip-path:url(#SVGID_00000122700451027878714570000012498998425450808200_);fill:#EBBF1D;}
	.st42{clip-path:url(#SVGID_00000122700451027878714570000012498998425450808200_);fill:#EABE1D;}
	.st43{clip-path:url(#SVGID_00000122700451027878714570000012498998425450808200_);fill:#E9BD1D;}
	.st44{clip-path:url(#SVGID_00000122700451027878714570000012498998425450808200_);fill:#E8BC1D;}
	.st45{clip-path:url(#SVGID_00000122700451027878714570000012498998425450808200_);fill:#E7BB1C;}
	.st46{clip-path:url(#SVGID_00000122700451027878714570000012498998425450808200_);fill:#E7BA1C;}
	.st47{clip-path:url(#SVGID_00000122700451027878714570000012498998425450808200_);fill:#E6B91C;}
	.st48{clip-path:url(#SVGID_00000122700451027878714570000012498998425450808200_);fill:#E5B81C;}
	.st49{clip-path:url(#SVGID_00000122700451027878714570000012498998425450808200_);fill:#E4B71B;}
	.st50{clip-path:url(#SVGID_00000122700451027878714570000012498998425450808200_);fill:#E3B61B;}
	.st51{clip-path:url(#SVGID_00000122700451027878714570000012498998425450808200_);fill:#E2B51B;}
	.st52{clip-path:url(#SVGID_00000122700451027878714570000012498998425450808200_);fill:#E2B41B;}
	.st53{clip-path:url(#SVGID_00000122700451027878714570000012498998425450808200_);fill:#E1B31A;}
	.st54{clip-path:url(#SVGID_00000122700451027878714570000012498998425450808200_);fill:#E0B21A;}
	.st55{clip-path:url(#SVGID_00000122700451027878714570000012498998425450808200_);fill:#DFB11A;}
	.st56{clip-path:url(#SVGID_00000122700451027878714570000012498998425450808200_);fill:#DEB01A;}
	.st57{clip-path:url(#SVGID_00000122700451027878714570000012498998425450808200_);fill:#DEAF19;}
	.st58{clip-path:url(#SVGID_00000122700451027878714570000012498998425450808200_);fill:#DDAE19;}
	.st59{clip-path:url(#SVGID_00000122700451027878714570000012498998425450808200_);fill:#DCAD19;}
	.st60{clip-path:url(#SVGID_00000122700451027878714570000012498998425450808200_);fill:#DBAC19;}
	.st61{clip-path:url(#SVGID_00000122700451027878714570000012498998425450808200_);fill:#DAAB19;}
	.st62{clip-path:url(#SVGID_00000122700451027878714570000012498998425450808200_);fill:#DAAA18;}
	.st63{clip-path:url(#SVGID_00000122700451027878714570000012498998425450808200_);fill:#D9A918;}
	.st64{clip-path:url(#SVGID_00000122700451027878714570000012498998425450808200_);fill:#D8A818;}
	.st65{clip-path:url(#SVGID_00000122700451027878714570000012498998425450808200_);fill:#D7A718;}
	.st66{clip-path:url(#SVGID_00000122700451027878714570000012498998425450808200_);fill:#D6A617;}
	.st67{clip-path:url(#SVGID_00000122700451027878714570000012498998425450808200_);fill:#D6A517;}
	.st68{clip-path:url(#SVGID_00000122700451027878714570000012498998425450808200_);fill:#D5A417;}
	.st69{clip-path:url(#SVGID_00000122700451027878714570000012498998425450808200_);fill:#D4A317;}
	.st70{clip-path:url(#SVGID_00000122700451027878714570000012498998425450808200_);fill:#D3A216;}
	.st71{clip-path:url(#SVGID_00000122700451027878714570000012498998425450808200_);fill:#D2A116;}
	.st72{clip-path:url(#SVGID_00000122700451027878714570000012498998425450808200_);fill:#D1A016;}
	.st73{clip-path:url(#SVGID_00000122700451027878714570000012498998425450808200_);fill:#D19F16;}
	.st74{clip-path:url(#SVGID_00000122700451027878714570000012498998425450808200_);fill:#D09E15;}
	.st75{clip-path:url(#SVGID_00000122700451027878714570000012498998425450808200_);fill:#CF9D15;}
	.st76{clip-path:url(#SVGID_00000122700451027878714570000012498998425450808200_);fill:#CE9C15;}
	.st77{clip-path:url(#SVGID_00000122700451027878714570000012498998425450808200_);fill:#CD9B15;}
	.st78{clip-path:url(#SVGID_00000122700451027878714570000012498998425450808200_);fill:#CD9A14;}
	.st79{clip-path:url(#SVGID_00000122700451027878714570000012498998425450808200_);fill:#CC9914;}
	.st80{clip-path:url(#SVGID_00000122700451027878714570000012498998425450808200_);fill:#CB9814;}
	.st81{clip-path:url(#SVGID_00000122700451027878714570000012498998425450808200_);fill:#CA9614;}
	.st82{clip-path:url(#SVGID_00000122700451027878714570000012498998425450808200_);fill:#C99514;}
	.st83{clip-path:url(#SVGID_00000122700451027878714570000012498998425450808200_);fill:#C99413;}
	.st84{clip-path:url(#SVGID_00000122700451027878714570000012498998425450808200_);fill:#C89313;}
	.st85{clip-path:url(#SVGID_00000122700451027878714570000012498998425450808200_);fill:#C79213;}
	.st86{clip-path:url(#SVGID_00000122700451027878714570000012498998425450808200_);fill:#C69113;}
	.st87{clip-path:url(#SVGID_00000122700451027878714570000012498998425450808200_);fill:#C59012;}
	.st88{clip-path:url(#SVGID_00000122700451027878714570000012498998425450808200_);fill:#C58F12;}
	.st89{clip-path:url(#SVGID_00000122700451027878714570000012498998425450808200_);fill:#C48E12;}
	.st90{clip-path:url(#SVGID_00000122700451027878714570000012498998425450808200_);fill:#C38D12;}
	.st91{clip-path:url(#SVGID_00000122700451027878714570000012498998425450808200_);fill:#C28C11;}
	.st92{clip-path:url(#SVGID_00000122700451027878714570000012498998425450808200_);fill:#C18B11;}
	.st93{clip-path:url(#SVGID_00000122700451027878714570000012498998425450808200_);fill:#C08A11;}
	.st94{clip-path:url(#SVGID_00000122700451027878714570000012498998425450808200_);fill:#C08911;}
	.st95{clip-path:url(#SVGID_00000122700451027878714570000012498998425450808200_);fill:#BF8810;}
	.st96{clip-path:url(#SVGID_00000122700451027878714570000012498998425450808200_);fill:#BE8710;}
	.st97{clip-path:url(#SVGID_00000122700451027878714570000012498998425450808200_);fill:#BD8610;}
	.st98{clip-path:url(#SVGID_00000122700451027878714570000012498998425450808200_);fill:#BC8510;}
	.st99{clip-path:url(#SVGID_00000122700451027878714570000012498998425450808200_);fill:#BC840F;}
	.st100{clip-path:url(#SVGID_00000122700451027878714570000012498998425450808200_);fill:#BB830F;}
	.st101{clip-path:url(#SVGID_00000122700451027878714570000012498998425450808200_);fill:#BA820F;}
	.st102{clip-path:url(#SVGID_00000122700451027878714570000012498998425450808200_);fill:#B9810F;}
	.st103{clip-path:url(#SVGID_00000122700451027878714570000012498998425450808200_);fill:#B8800F;}
	.st104{clip-path:url(#SVGID_00000122700451027878714570000012498998425450808200_);fill:#B87F0E;}
	.st105{clip-path:url(#SVGID_00000122700451027878714570000012498998425450808200_);fill:#B77E0E;}
	.st106{clip-path:url(#SVGID_00000122700451027878714570000012498998425450808200_);fill:#B67D0E;}
	.st107{clip-path:url(#SVGID_00000122700451027878714570000012498998425450808200_);fill:#B57C0E;}
	.st108{clip-path:url(#SVGID_00000122700451027878714570000012498998425450808200_);fill:#B47B0D;}
	.st109{clip-path:url(#SVGID_00000122700451027878714570000012498998425450808200_);fill:#B47A0D;}
	.st110{clip-path:url(#SVGID_00000122700451027878714570000012498998425450808200_);fill:#B3790D;}
	.st111{clip-path:url(#SVGID_00000122700451027878714570000012498998425450808200_);fill:#B2780D;}
	.st112{clip-path:url(#SVGID_00000122700451027878714570000012498998425450808200_);fill:#B1770C;}
	.st113{clip-path:url(#SVGID_00000122700451027878714570000012498998425450808200_);fill:#B0760C;}
	.st114{clip-path:url(#SVGID_00000122700451027878714570000012498998425450808200_);fill:#AF750C;}
	.st115{clip-path:url(#SVGID_00000122700451027878714570000012498998425450808200_);fill:#AF740C;}
	.st116{clip-path:url(#SVGID_00000122700451027878714570000012498998425450808200_);fill:#AE730B;}
	.st117{clip-path:url(#SVGID_00000122700451027878714570000012498998425450808200_);fill:#AD720B;}
	.st118{clip-path:url(#SVGID_00000122700451027878714570000012498998425450808200_);fill:#AC710B;}
	.st119{clip-path:url(#SVGID_00000122700451027878714570000012498998425450808200_);fill:#AB700B;}
	.st120{clip-path:url(#SVGID_00000122700451027878714570000012498998425450808200_);fill:#AB6F0A;}
	.st121{clip-path:url(#SVGID_00000122700451027878714570000012498998425450808200_);fill:#AA6E0A;}
	.st122{clip-path:url(#SVGID_00000122700451027878714570000012498998425450808200_);fill:#A96D0A;}
	.st123{clip-path:url(#SVGID_00000122700451027878714570000012498998425450808200_);fill:#A86C0A;}
	.st124{clip-path:url(#SVGID_00000122700451027878714570000012498998425450808200_);fill:#A76B0A;}
	.st125{clip-path:url(#SVGID_00000122700451027878714570000012498998425450808200_);fill:#A76A09;}
	.st126{clip-path:url(#SVGID_00000122700451027878714570000012498998425450808200_);fill:#A66909;}
	.st127{clip-path:url(#SVGID_00000122700451027878714570000012498998425450808200_);fill:#A56809;}
	.st128{clip-path:url(#SVGID_00000122700451027878714570000012498998425450808200_);fill:#A46709;}
	.st129{clip-path:url(#SVGID_00000122700451027878714570000012498998425450808200_);fill:#A36608;}
	.st130{clip-path:url(#SVGID_00000122700451027878714570000012498998425450808200_);fill:#A36508;}
	.st131{clip-path:url(#SVGID_00000122700451027878714570000012498998425450808200_);fill:#A26408;}
	.st132{clip-path:url(#SVGID_00000122700451027878714570000012498998425450808200_);fill:#A16308;}
	.st133{clip-path:url(#SVGID_00000122700451027878714570000012498998425450808200_);fill:#A06207;}
	.st134{clip-path:url(#SVGID_00000122700451027878714570000012498998425450808200_);fill:#9F6107;}
	.st135{clip-path:url(#SVGID_00000122700451027878714570000012498998425450808200_);fill:#9E6007;}
	.st136{clip-path:url(#SVGID_00000122700451027878714570000012498998425450808200_);fill:#9E5F07;}
	.st137{clip-path:url(#SVGID_00000122700451027878714570000012498998425450808200_);fill:#9D5E06;}
	.st138{clip-path:url(#SVGID_00000122700451027878714570000012498998425450808200_);fill:#9C5D06;}
	.st139{clip-path:url(#SVGID_00000122700451027878714570000012498998425450808200_);fill:#9B5C06;}
	.st140{clip-path:url(#SVGID_00000122700451027878714570000012498998425450808200_);fill:#9A5B06;}
	.st141{clip-path:url(#SVGID_00000122700451027878714570000012498998425450808200_);fill:#9A5A05;}
	.st142{clip-path:url(#SVGID_00000122700451027878714570000012498998425450808200_);fill:#995905;}
	.st143{clip-path:url(#SVGID_00000122700451027878714570000012498998425450808200_);fill:#985805;}
	.st144{fill:#212B26;}
	.st145{fill:url(#SVGID_00000078041777131264249060000008578402495554501260_);}
	.st146{fill:none;stroke:#000000;stroke-width:0.75;stroke-miterlimit:10;}
</style>
<g>
	<g>
		<g>
			<g>
				<path class="st9" d="M28.1,21.7h0.3v2.5h-0.3c-4.2,0-7.6,1.5-10.4,4.3c-2.7,2.9-4.2,6.3-4.2,10.3c0,4.2,1.3,7.5,3.9,10
					c2.6,2.6,5.5,4,8.5,4.4v-24h2.5v26.7h-0.3c-3.1,0-5.9-0.8-8.4-2.3s-4.5-3.6-6.1-6.2S11,41.8,11,38.8c0-2.3,0.4-4.4,1.3-6.5
					c0.9-2.1,2.1-3.9,3.6-5.5c1.5-1.5,3.3-2.7,5.5-3.7C23.5,22.2,25.8,21.7,28.1,21.7L28.1,21.7z"/>
			</g>
			<g>
				<path class="st10" d="M27.5,21.5h0.3V24h-0.3c-4.2,0-7.6,1.5-10.4,4.4c-2.7,2.8-4.2,6.3-4.2,10.3c0,4.2,1.3,7.5,3.9,10
					c2.6,2.6,5.4,4,8.4,4.4V28.9h2.5v26.7h-0.3c-3.1,0-5.9-0.8-8.4-2.3c-2.6-1.5-4.5-3.6-6.1-6.2c-1.5-2.6-2.3-5.6-2.3-8.6
					c0-2.3,0.4-4.4,1.3-6.5c0.9-2.1,2.1-3.9,3.6-5.5s3.3-2.7,5.5-3.7C22.9,21.9,25.2,21.5,27.5,21.5L27.5,21.5z"/>
			</g>
			<g>
				<path class="st11" d="M18.8,50.1l11.9-20.8v8.6c-2.8,4.7-5.7,9.5-8.6,14.3C21.1,51.7,19.9,50.9,18.8,50.1L18.8,50.1z"/>
			</g>
			<g>
				<polygon class="st12" points="45.8,55.8 45.5,55.2 44,52.5 30.7,29.3 30.7,37.9 38.8,51.3 				"/>
			</g>
			<g>
				<polygon class="st13" points="28.6,51.3 28.9,51.3 29.9,51.3 38.8,51.3 45.8,55.8 28.6,55.8 				"/>
			</g>
			<g>
				<path class="st14" d="M23.5,52.6l0.8-1.2l6.4-11v-2.6L22.1,52C22.6,52.3,23,52.4,23.5,52.6L23.5,52.6z"/>
			</g>
			<g>
				<polygon class="st14" points="38.8,51.3 38.7,51.2 38.5,51.2 36.3,50.1 30.7,40.4 30.7,37.9 				"/>
			</g>
			<g>
				<polygon class="st15" points="28.6,51.3 28.9,51.3 29.9,51.3 38.8,51.3 36.3,50.1 28.6,50.1 				"/>
			</g>
		</g>
		<g>
			<g>
				<path class="st10" d="M50.5,62.3v13.4h1.6V62.3H50.5z M44.6,61.7L40,72.8l-4.6-11.1l-2.6,13.9h1.4l1.7-9.1l4.2,9.6l4.1-9.6
					l1.7,9.1h1.5L44.6,61.7z M25.3,61.7l-6.1,13.9h1.7l1.8-4.2h5.2l1.7,4.2h1.7L25.3,61.7z M23.2,70.1l2.1-4.9l2.1,4.9H23.2z
					 M12.2,68.7c0,0,0,1.3-0.1,1.3h3.8c0,1.3-0.6,2.5-1.4,3.2s-2,1.2-3.3,1.2c-1.5,0-2.6-0.5-3.7-1.5C6.5,72,6,70.7,6,69.1
					c0-1.8,0.5-3,1.4-4.2c0.9-1.1,2.3-1.6,3.8-1.6c0.9,0,1.7,0.1,2.5,0.6c0.8,0.4,1.3,1,1.8,1.8l1.3-1c-0.7-0.9-1.4-1.6-2.4-2.1
					c-0.9-0.6-2-0.8-3.3-0.8c-0.9,0-1.9,0.2-2.6,0.5C7.7,62.5,7,63,6.4,63.6c-0.8,0.7-1.2,1.5-1.6,2.4c-0.3,0.9-0.5,2-0.5,3
					c0,1.4,0.4,2.5,0.9,3.6s1.4,2,2.6,2.6c0.5,0.3,0.9,0.4,1.5,0.6c0.6,0.1,1.1,0.2,1.8,0.2c2,0,3.7-0.6,4.8-1.8
					c1.1-1.2,1.7-2.9,1.7-5v-0.5H12.2z"/>
			</g>
			<g>
				<path class="st16" d="M52.2,79c0-0.1-0.1-0.3-0.3-0.4c0-0.1-0.1-0.2-0.3-0.2c-0.2-0.1-0.4-0.1-0.7-0.1h-0.9v4h0.4v-1.8l0.2,0.1
					h0.3c0.4,0,0.6,0,0.7-0.1c0-0.1,0.2-0.1,0.3-0.2s0.2-0.2,0.3-0.4c0.1-0.2,0.1-0.3,0.1-0.5C52.3,79.3,52.3,79.2,52.2,79z
					 M51.5,79.8C51.3,79.9,51,80,50.6,80h-0.3v-1.4h0.3c0.5,0,0.7,0.1,0.9,0.2c0.2,0.2,0.3,0.3,0.3,0.6
					C51.8,79.6,51.7,79.8,51.5,79.8z M41.5,78.3v2.5c0,0.4-0.1,0.7-0.3,0.9c-0.2,0.2-0.4,0.3-0.9,0.3c-0.5,0-0.7-0.1-0.9-0.3
					c-0.2-0.1-0.3-0.5-0.3-0.9v-2.5h-0.3v2.5c0,0.6,0.1,1,0.4,1.2s0.7,0.4,1.1,0.4c0.5,0,0.9-0.1,1.1-0.4s0.4-0.7,0.4-1.2v-2.5H41.5
					z M30.3,79.5c-0.2-0.3-0.2-0.4-0.5-0.7c-0.2-0.1-0.4-0.3-0.7-0.4c-0.3-0.1-0.6-0.2-0.9-0.2c-0.3,0-0.6,0.1-0.9,0.2
					c-0.3,0.1-0.4,0.2-0.7,0.4c-0.1,0.2-0.3,0.4-0.4,0.7c-0.1,0.3-0.2,0.6-0.2,0.9c0,0.4,0.1,0.6,0.2,0.9c0.1,0.3,0.2,0.5,0.4,0.7
					c0.2,0.2,0.4,0.4,0.7,0.5c0.3,0.1,0.6,0.2,0.9,0.2c0.4,0,0.6-0.1,0.9-0.2c0.3-0.2,0.5-0.3,0.7-0.5c0.2-0.2,0.4-0.4,0.5-0.7
					c0.1-0.3,0.2-0.6,0.2-0.9S30.5,79.8,30.3,79.5z M29.8,81c0,0.3-0.1,0.4-0.3,0.6c-0.1,0-0.3,0.2-0.5,0.3c-0.2,0-0.3,0.1-0.6,0.1
					s-0.5-0.1-0.7-0.1s-0.3-0.1-0.5-0.3c-0.1-0.2-0.2-0.4-0.3-0.6c0-0.3-0.1-0.4-0.1-0.7s0-0.4,0.1-0.7c0-0.2,0.1-0.3,0.3-0.5
					c0.1-0.1,0.3-0.2,0.5-0.3c0.3-0.1,0.4-0.2,0.7-0.2c0.2,0,0.4,0,0.6,0.2c0.2,0,0.3,0.1,0.5,0.3c0.1,0.1,0.2,0.3,0.3,0.5
					c0.1,0.3,0.1,0.4,0.1,0.7S29.9,80.8,29.8,81z M17,80.5L17,80.5c0.6,0,0.8-0.1,0.9-0.3c0.2-0.2,0.3-0.5,0.3-0.8
					c0-0.2,0-0.3-0.1-0.5c0-0.1-0.2-0.3-0.3-0.4c0-0.1-0.1-0.2-0.3-0.2c-0.1-0.1-0.3-0.1-0.6-0.1h-0.9v4.1h0.4v-1.9h0.1l1.3,1.9h0.6
					L17,80.5z M16.7,78.7H17c0.4,0,0.7,0.1,0.8,0.2c0.1,0.1,0.2,0.3,0.2,0.6c0,0.2,0,0.4-0.2,0.5s-0.5,0.2-0.8,0.2h-0.3V78.7z
					 M6.6,80.2l-0.2,0.6h1.1c0,0.4-0.2,0.8-0.4,0.9C7,81.9,6.6,82,6.2,82c-0.5,0-0.9-0.2-1.1-0.5c-0.2-0.3-0.4-0.7-0.4-1.1
					s0.1-0.9,0.4-1.2c0.3-0.3,0.7-0.5,1.1-0.5c0.4,0,0.5,0,0.7,0.3c0.3,0.1,0.4,0.2,0.6,0.5l0.4-0.3c-0.2-0.4-0.5-0.5-0.7-0.7
					c-0.2-0.2-0.6-0.3-0.9-0.3c-0.3,0-0.6,0-0.8,0.1S5,78.6,4.8,78.8c-0.2,0.2-0.4,0.4-0.5,0.7c-0.1,0.2-0.2,0.6-0.2,0.9
					c0,0.4,0.1,0.8,0.3,1c0.2,0.4,0.5,0.6,0.8,0.8c0.1,0.1,0.2,0.2,0.4,0.2c0.2,0.1,0.4,0.1,0.6,0.1c0.7,0,1.2-0.3,1.5-0.6
					C8,81.5,8.2,81,8.2,80.3v-0.1H6.6z"/>
			</g>
		</g>
	</g>
	<g>
		<g>
			<g>
				<defs>
					<path id="SVGID_00000180350388524071430540000002832549166371796884_" d="M87.2,71.1c-3.9-3.1-7.7-6.6-11.3-10.2
						c-4.3-4.2-9.1-8.6-11.8-14.7c-1.4-3.1-0.5-6.6,1.3-9.1c1.7-2.5,4.4-3.6,7-3.8c9.4-1,24.5-2.2,39.8,5.6c0,0,15.1,6.3,15.5,15.1
						c0,0,0,6.7-13.9,13.9c0,0-5.1,3.2-15.7,6.6C98,74.4,91.9,76,87.2,71.1z"/>
				</defs>
				<clipPath id="SVGID_00000038413252704951414100000009043439645107350693_">
					<use xlink:href="#SVGID_00000180350388524071430540000002832549166371796884_"  style="overflow:visible;"/>
				</clipPath>
				
					<rect x="62.6" y="31" style="clip-path:url(#SVGID_00000038413252704951414100000009043439645107350693_);fill:#FED723;" width="0.4" height="45"/>
				
					<rect x="63" y="31" style="clip-path:url(#SVGID_00000038413252704951414100000009043439645107350693_);fill:#FED723;" width="0.5" height="45"/>
				
					<rect x="63.5" y="31" style="clip-path:url(#SVGID_00000038413252704951414100000009043439645107350693_);fill:#FDD623;" width="0.5" height="45"/>
				
					<rect x="64" y="31" style="clip-path:url(#SVGID_00000038413252704951414100000009043439645107350693_);fill:#FCD523;" width="0.5" height="45"/>
				
					<rect x="64.5" y="31" style="clip-path:url(#SVGID_00000038413252704951414100000009043439645107350693_);fill:#FCD422;" width="0.5" height="45"/>
				
					<rect x="65" y="31" style="clip-path:url(#SVGID_00000038413252704951414100000009043439645107350693_);fill:#FBD322;" width="0.5" height="45"/>
				
					<rect x="65.5" y="31" style="clip-path:url(#SVGID_00000038413252704951414100000009043439645107350693_);fill:#FAD222;" width="0.5" height="45"/>
				
					<rect x="66" y="31" style="clip-path:url(#SVGID_00000038413252704951414100000009043439645107350693_);fill:#F9D122;" width="0.5" height="45"/>
				
					<rect x="66.5" y="31" style="clip-path:url(#SVGID_00000038413252704951414100000009043439645107350693_);fill:#F8D021;" width="0.5" height="45"/>
				
					<rect x="67" y="31" style="clip-path:url(#SVGID_00000038413252704951414100000009043439645107350693_);fill:#F8CF21;" width="0.5" height="45"/>
				
					<rect x="67.5" y="31" style="clip-path:url(#SVGID_00000038413252704951414100000009043439645107350693_);fill:#F7CE21;" width="0.5" height="45"/>
				
					<rect x="68" y="31" style="clip-path:url(#SVGID_00000038413252704951414100000009043439645107350693_);fill:#F6CD21;" width="0.5" height="45"/>
				
					<rect x="68.5" y="31" style="clip-path:url(#SVGID_00000038413252704951414100000009043439645107350693_);fill:#F5CC20;" width="0.5" height="45"/>
				
					<rect x="69" y="31" style="clip-path:url(#SVGID_00000038413252704951414100000009043439645107350693_);fill:#F4CB20;" width="0.5" height="45"/>
				
					<rect x="69.5" y="31" style="clip-path:url(#SVGID_00000038413252704951414100000009043439645107350693_);fill:#F3CA20;" width="0.5" height="45"/>
				
					<rect x="70.1" y="31" style="clip-path:url(#SVGID_00000038413252704951414100000009043439645107350693_);fill:#F3C920;" width="0.5" height="45"/>
				
					<rect x="70.6" y="31" style="clip-path:url(#SVGID_00000038413252704951414100000009043439645107350693_);fill:#F2C81F;" width="0.5" height="45"/>
				
					<rect x="71.1" y="31" style="clip-path:url(#SVGID_00000038413252704951414100000009043439645107350693_);fill:#F1C71F;" width="0.5" height="45"/>
				
					<rect x="71.6" y="31" style="clip-path:url(#SVGID_00000038413252704951414100000009043439645107350693_);fill:#F0C61F;" width="0.5" height="45"/>
				
					<rect x="72.1" y="31" style="clip-path:url(#SVGID_00000038413252704951414100000009043439645107350693_);fill:#EFC51F;" width="0.5" height="45"/>
				
					<rect x="72.6" y="31" style="clip-path:url(#SVGID_00000038413252704951414100000009043439645107350693_);fill:#EFC41E;" width="0.5" height="45"/>
				
					<rect x="73.1" y="31" style="clip-path:url(#SVGID_00000038413252704951414100000009043439645107350693_);fill:#EEC31E;" width="0.5" height="45"/>
				
					<rect x="73.6" y="31" style="clip-path:url(#SVGID_00000038413252704951414100000009043439645107350693_);fill:#EDC21E;" width="0.5" height="45"/>
				
					<rect x="74.1" y="31" style="clip-path:url(#SVGID_00000038413252704951414100000009043439645107350693_);fill:#ECC11E;" width="0.5" height="45"/>
				
					<rect x="74.6" y="31" style="clip-path:url(#SVGID_00000038413252704951414100000009043439645107350693_);fill:#EBC01E;" width="0.5" height="45"/>
				
					<rect x="75.1" y="31" style="clip-path:url(#SVGID_00000038413252704951414100000009043439645107350693_);fill:#EBBF1D;" width="0.5" height="45"/>
				
					<rect x="75.6" y="31" style="clip-path:url(#SVGID_00000038413252704951414100000009043439645107350693_);fill:#EABE1D;" width="0.5" height="45"/>
				
					<rect x="76.1" y="31" style="clip-path:url(#SVGID_00000038413252704951414100000009043439645107350693_);fill:#E9BD1D;" width="0.5" height="45"/>
				
					<rect x="76.6" y="31" style="clip-path:url(#SVGID_00000038413252704951414100000009043439645107350693_);fill:#E8BC1D;" width="0.5" height="45"/>
				
					<rect x="77.1" y="31" style="clip-path:url(#SVGID_00000038413252704951414100000009043439645107350693_);fill:#E7BB1C;" width="0.5" height="45"/>
				
					<rect x="77.6" y="31" style="clip-path:url(#SVGID_00000038413252704951414100000009043439645107350693_);fill:#E7BA1C;" width="0.5" height="45"/>
				
					<rect x="78.1" y="31" style="clip-path:url(#SVGID_00000038413252704951414100000009043439645107350693_);fill:#E6B91C;" width="0.5" height="45"/>
				
					<rect x="78.7" y="31" style="clip-path:url(#SVGID_00000038413252704951414100000009043439645107350693_);fill:#E5B81C;" width="0.5" height="45"/>
				
					<rect x="79.2" y="31" style="clip-path:url(#SVGID_00000038413252704951414100000009043439645107350693_);fill:#E4B71B;" width="0.5" height="45"/>
				
					<rect x="79.7" y="31" style="clip-path:url(#SVGID_00000038413252704951414100000009043439645107350693_);fill:#E3B61B;" width="0.5" height="45"/>
				
					<rect x="80.2" y="31" style="clip-path:url(#SVGID_00000038413252704951414100000009043439645107350693_);fill:#E2B51B;" width="0.5" height="45"/>
				
					<rect x="80.7" y="31" style="clip-path:url(#SVGID_00000038413252704951414100000009043439645107350693_);fill:#E2B41B;" width="0.5" height="45"/>
				
					<rect x="81.2" y="31" style="clip-path:url(#SVGID_00000038413252704951414100000009043439645107350693_);fill:#E1B31A;" width="0.5" height="45"/>
				
					<rect x="81.7" y="31" style="clip-path:url(#SVGID_00000038413252704951414100000009043439645107350693_);fill:#E0B21A;" width="0.5" height="45"/>
				
					<rect x="82.2" y="31" style="clip-path:url(#SVGID_00000038413252704951414100000009043439645107350693_);fill:#DFB11A;" width="0.5" height="45"/>
				
					<rect x="82.7" y="31" style="clip-path:url(#SVGID_00000038413252704951414100000009043439645107350693_);fill:#DEB01A;" width="0.5" height="45"/>
				
					<rect x="83.2" y="31" style="clip-path:url(#SVGID_00000038413252704951414100000009043439645107350693_);fill:#DEAF19;" width="0.5" height="45"/>
				
					<rect x="83.7" y="31" style="clip-path:url(#SVGID_00000038413252704951414100000009043439645107350693_);fill:#DDAE19;" width="0.5" height="45"/>
				
					<rect x="84.2" y="31" style="clip-path:url(#SVGID_00000038413252704951414100000009043439645107350693_);fill:#DCAD19;" width="0.5" height="45"/>
				
					<rect x="84.7" y="31" style="clip-path:url(#SVGID_00000038413252704951414100000009043439645107350693_);fill:#DBAC19;" width="0.5" height="45"/>
				
					<rect x="85.2" y="31" style="clip-path:url(#SVGID_00000038413252704951414100000009043439645107350693_);fill:#DAAB19;" width="0.5" height="45"/>
				
					<rect x="85.7" y="31" style="clip-path:url(#SVGID_00000038413252704951414100000009043439645107350693_);fill:#DAAA18;" width="0.5" height="45"/>
				
					<rect x="86.2" y="31" style="clip-path:url(#SVGID_00000038413252704951414100000009043439645107350693_);fill:#D9A918;" width="0.5" height="45"/>
				
					<rect x="86.7" y="31" style="clip-path:url(#SVGID_00000038413252704951414100000009043439645107350693_);fill:#D8A818;" width="0.5" height="45"/>
				
					<rect x="87.3" y="31" style="clip-path:url(#SVGID_00000038413252704951414100000009043439645107350693_);fill:#D7A718;" width="0.5" height="45"/>
				
					<rect x="87.8" y="31" style="clip-path:url(#SVGID_00000038413252704951414100000009043439645107350693_);fill:#D6A617;" width="0.5" height="45"/>
				
					<rect x="88.3" y="31" style="clip-path:url(#SVGID_00000038413252704951414100000009043439645107350693_);fill:#D6A517;" width="0.5" height="45"/>
				
					<rect x="88.8" y="31" style="clip-path:url(#SVGID_00000038413252704951414100000009043439645107350693_);fill:#D5A417;" width="0.5" height="45"/>
				
					<rect x="89.3" y="31" style="clip-path:url(#SVGID_00000038413252704951414100000009043439645107350693_);fill:#D4A317;" width="0.5" height="45"/>
				
					<rect x="89.8" y="31" style="clip-path:url(#SVGID_00000038413252704951414100000009043439645107350693_);fill:#D3A216;" width="0.5" height="45"/>
				
					<rect x="90.3" y="31" style="clip-path:url(#SVGID_00000038413252704951414100000009043439645107350693_);fill:#D2A116;" width="0.5" height="45"/>
				
					<rect x="90.8" y="31" style="clip-path:url(#SVGID_00000038413252704951414100000009043439645107350693_);fill:#D1A016;" width="0.5" height="45"/>
				
					<rect x="91.3" y="31" style="clip-path:url(#SVGID_00000038413252704951414100000009043439645107350693_);fill:#D19F16;" width="0.5" height="45"/>
				
					<rect x="91.8" y="31" style="clip-path:url(#SVGID_00000038413252704951414100000009043439645107350693_);fill:#D09E15;" width="0.5" height="45"/>
				
					<rect x="92.3" y="31" style="clip-path:url(#SVGID_00000038413252704951414100000009043439645107350693_);fill:#CF9D15;" width="0.5" height="45"/>
				
					<rect x="92.8" y="31" style="clip-path:url(#SVGID_00000038413252704951414100000009043439645107350693_);fill:#CE9C15;" width="0.5" height="45"/>
				
					<rect x="93.3" y="31" style="clip-path:url(#SVGID_00000038413252704951414100000009043439645107350693_);fill:#CD9B15;" width="0.5" height="45"/>
				
					<rect x="93.8" y="31" style="clip-path:url(#SVGID_00000038413252704951414100000009043439645107350693_);fill:#CD9A14;" width="0.5" height="45"/>
				
					<rect x="94.3" y="31" style="clip-path:url(#SVGID_00000038413252704951414100000009043439645107350693_);fill:#CC9914;" width="0.5" height="45"/>
				
					<rect x="94.8" y="31" style="clip-path:url(#SVGID_00000038413252704951414100000009043439645107350693_);fill:#CB9814;" width="0.5" height="45"/>
				
					<rect x="95.3" y="31" style="clip-path:url(#SVGID_00000038413252704951414100000009043439645107350693_);fill:#CA9614;" width="0.5" height="45"/>
				
					<rect x="95.9" y="31" style="clip-path:url(#SVGID_00000038413252704951414100000009043439645107350693_);fill:#C99514;" width="0.5" height="45"/>
				
					<rect x="96.4" y="31" style="clip-path:url(#SVGID_00000038413252704951414100000009043439645107350693_);fill:#C99413;" width="0.5" height="45"/>
				
					<rect x="96.9" y="31" style="clip-path:url(#SVGID_00000038413252704951414100000009043439645107350693_);fill:#C89313;" width="0.5" height="45"/>
				
					<rect x="97.4" y="31" style="clip-path:url(#SVGID_00000038413252704951414100000009043439645107350693_);fill:#C79213;" width="0.5" height="45"/>
				
					<rect x="97.9" y="31" style="clip-path:url(#SVGID_00000038413252704951414100000009043439645107350693_);fill:#C69113;" width="0.5" height="45"/>
				
					<rect x="98.4" y="31" style="clip-path:url(#SVGID_00000038413252704951414100000009043439645107350693_);fill:#C59012;" width="0.5" height="45"/>
				
					<rect x="98.9" y="31" style="clip-path:url(#SVGID_00000038413252704951414100000009043439645107350693_);fill:#C58F12;" width="0.5" height="45"/>
				
					<rect x="99.4" y="31" style="clip-path:url(#SVGID_00000038413252704951414100000009043439645107350693_);fill:#C48E12;" width="0.5" height="45"/>
				
					<rect x="99.9" y="31" style="clip-path:url(#SVGID_00000038413252704951414100000009043439645107350693_);fill:#C38D12;" width="0.5" height="45"/>
				
					<rect x="100.4" y="31" style="clip-path:url(#SVGID_00000038413252704951414100000009043439645107350693_);fill:#C28C11;" width="0.5" height="45"/>
				
					<rect x="100.9" y="31" style="clip-path:url(#SVGID_00000038413252704951414100000009043439645107350693_);fill:#C18B11;" width="0.5" height="45"/>
				
					<rect x="101.4" y="31" style="clip-path:url(#SVGID_00000038413252704951414100000009043439645107350693_);fill:#C08A11;" width="0.5" height="45"/>
				
					<rect x="101.9" y="31" style="clip-path:url(#SVGID_00000038413252704951414100000009043439645107350693_);fill:#C08911;" width="0.5" height="45"/>
				
					<rect x="102.4" y="31" style="clip-path:url(#SVGID_00000038413252704951414100000009043439645107350693_);fill:#BF8810;" width="0.5" height="45"/>
				
					<rect x="102.9" y="31" style="clip-path:url(#SVGID_00000038413252704951414100000009043439645107350693_);fill:#BE8710;" width="0.5" height="45"/>
				
					<rect x="103.4" y="31" style="clip-path:url(#SVGID_00000038413252704951414100000009043439645107350693_);fill:#BD8610;" width="0.5" height="45"/>
				
					<rect x="103.9" y="31" style="clip-path:url(#SVGID_00000038413252704951414100000009043439645107350693_);fill:#BC8510;" width="0.5" height="45"/>
				
					<rect x="104.5" y="31" style="clip-path:url(#SVGID_00000038413252704951414100000009043439645107350693_);fill:#BC840F;" width="0.5" height="45"/>
				
					<rect x="105" y="31" style="clip-path:url(#SVGID_00000038413252704951414100000009043439645107350693_);fill:#BB830F;" width="0.5" height="45"/>
				
					<rect x="105.5" y="31" style="clip-path:url(#SVGID_00000038413252704951414100000009043439645107350693_);fill:#BA820F;" width="0.5" height="45"/>
				
					<rect x="106" y="31" style="clip-path:url(#SVGID_00000038413252704951414100000009043439645107350693_);fill:#B9810F;" width="0.5" height="45"/>
				
					<rect x="106.5" y="31" style="clip-path:url(#SVGID_00000038413252704951414100000009043439645107350693_);fill:#B8800F;" width="0.5" height="45"/>
				
					<rect x="107" y="31" style="clip-path:url(#SVGID_00000038413252704951414100000009043439645107350693_);fill:#B87F0E;" width="0.5" height="45"/>
				
					<rect x="107.5" y="31" style="clip-path:url(#SVGID_00000038413252704951414100000009043439645107350693_);fill:#B77E0E;" width="0.5" height="45"/>
				
					<rect x="108" y="31" style="clip-path:url(#SVGID_00000038413252704951414100000009043439645107350693_);fill:#B67D0E;" width="0.5" height="45"/>
				
					<rect x="108.5" y="31" style="clip-path:url(#SVGID_00000038413252704951414100000009043439645107350693_);fill:#B57C0E;" width="0.5" height="45"/>
				
					<rect x="109" y="31" style="clip-path:url(#SVGID_00000038413252704951414100000009043439645107350693_);fill:#B47B0D;" width="0.5" height="45"/>
				
					<rect x="109.5" y="31" style="clip-path:url(#SVGID_00000038413252704951414100000009043439645107350693_);fill:#B47A0D;" width="0.5" height="45"/>
				
					<rect x="110" y="31" style="clip-path:url(#SVGID_00000038413252704951414100000009043439645107350693_);fill:#B3790D;" width="0.5" height="45"/>
				
					<rect x="110.5" y="31" style="clip-path:url(#SVGID_00000038413252704951414100000009043439645107350693_);fill:#B2780D;" width="0.5" height="45"/>
				
					<rect x="111" y="31" style="clip-path:url(#SVGID_00000038413252704951414100000009043439645107350693_);fill:#B1770C;" width="0.5" height="45"/>
				
					<rect x="111.5" y="31" style="clip-path:url(#SVGID_00000038413252704951414100000009043439645107350693_);fill:#B0760C;" width="0.5" height="45"/>
				
					<rect x="112" y="31" style="clip-path:url(#SVGID_00000038413252704951414100000009043439645107350693_);fill:#AF750C;" width="0.5" height="45"/>
				
					<rect x="112.5" y="31" style="clip-path:url(#SVGID_00000038413252704951414100000009043439645107350693_);fill:#AF740C;" width="0.5" height="45"/>
				
					<rect x="113.1" y="31" style="clip-path:url(#SVGID_00000038413252704951414100000009043439645107350693_);fill:#AE730B;" width="0.5" height="45"/>
				
					<rect x="113.6" y="31" style="clip-path:url(#SVGID_00000038413252704951414100000009043439645107350693_);fill:#AD720B;" width="0.5" height="45"/>
				
					<rect x="114.1" y="31" style="clip-path:url(#SVGID_00000038413252704951414100000009043439645107350693_);fill:#AC710B;" width="0.5" height="45"/>
				
					<rect x="114.6" y="31" style="clip-path:url(#SVGID_00000038413252704951414100000009043439645107350693_);fill:#AB700B;" width="0.5" height="45"/>
				
					<rect x="115.1" y="31" style="clip-path:url(#SVGID_00000038413252704951414100000009043439645107350693_);fill:#AB6F0A;" width="0.5" height="45"/>
				
					<rect x="115.6" y="31" style="clip-path:url(#SVGID_00000038413252704951414100000009043439645107350693_);fill:#AA6E0A;" width="0.5" height="45"/>
				
					<rect x="116.1" y="31" style="clip-path:url(#SVGID_00000038413252704951414100000009043439645107350693_);fill:#A96D0A;" width="0.5" height="45"/>
				
					<rect x="116.6" y="31" style="clip-path:url(#SVGID_00000038413252704951414100000009043439645107350693_);fill:#A86C0A;" width="0.5" height="45"/>
				
					<rect x="117.1" y="31" style="clip-path:url(#SVGID_00000038413252704951414100000009043439645107350693_);fill:#A76B0A;" width="0.5" height="45"/>
				
					<rect x="117.6" y="31" style="clip-path:url(#SVGID_00000038413252704951414100000009043439645107350693_);fill:#A76A09;" width="0.5" height="45"/>
				
					<rect x="118.1" y="31" style="clip-path:url(#SVGID_00000038413252704951414100000009043439645107350693_);fill:#A66909;" width="0.5" height="45"/>
				
					<rect x="118.6" y="31" style="clip-path:url(#SVGID_00000038413252704951414100000009043439645107350693_);fill:#A56809;" width="0.5" height="45"/>
				
					<rect x="119.1" y="31" style="clip-path:url(#SVGID_00000038413252704951414100000009043439645107350693_);fill:#A46709;" width="0.5" height="45"/>
				
					<rect x="119.6" y="31" style="clip-path:url(#SVGID_00000038413252704951414100000009043439645107350693_);fill:#A36608;" width="0.5" height="45"/>
				
					<rect x="120.1" y="31" style="clip-path:url(#SVGID_00000038413252704951414100000009043439645107350693_);fill:#A36508;" width="0.5" height="45"/>
				
					<rect x="120.6" y="31" style="clip-path:url(#SVGID_00000038413252704951414100000009043439645107350693_);fill:#A26408;" width="0.5" height="45"/>
				
					<rect x="121.1" y="31" style="clip-path:url(#SVGID_00000038413252704951414100000009043439645107350693_);fill:#A16308;" width="0.5" height="45"/>
				
					<rect x="121.7" y="31" style="clip-path:url(#SVGID_00000038413252704951414100000009043439645107350693_);fill:#A06207;" width="0.5" height="45"/>
				
					<rect x="122.2" y="31" style="clip-path:url(#SVGID_00000038413252704951414100000009043439645107350693_);fill:#9F6107;" width="0.5" height="45"/>
				
					<rect x="122.7" y="31" style="clip-path:url(#SVGID_00000038413252704951414100000009043439645107350693_);fill:#9E6007;" width="0.5" height="45"/>
				
					<rect x="123.2" y="31" style="clip-path:url(#SVGID_00000038413252704951414100000009043439645107350693_);fill:#9E5F07;" width="0.5" height="45"/>
				
					<rect x="123.7" y="31" style="clip-path:url(#SVGID_00000038413252704951414100000009043439645107350693_);fill:#9D5E06;" width="0.5" height="45"/>
				
					<rect x="124.2" y="31" style="clip-path:url(#SVGID_00000038413252704951414100000009043439645107350693_);fill:#9C5D06;" width="0.5" height="45"/>
				
					<rect x="124.7" y="31" style="clip-path:url(#SVGID_00000038413252704951414100000009043439645107350693_);fill:#9B5C06;" width="0.5" height="45"/>
				
					<rect x="125.2" y="31" style="clip-path:url(#SVGID_00000038413252704951414100000009043439645107350693_);fill:#9A5B06;" width="0.5" height="45"/>
				
					<rect x="125.7" y="31" style="clip-path:url(#SVGID_00000038413252704951414100000009043439645107350693_);fill:#9A5A05;" width="0.5" height="45"/>
				
					<rect x="126.2" y="31" style="clip-path:url(#SVGID_00000038413252704951414100000009043439645107350693_);fill:#995905;" width="0.5" height="45"/>
				
					<rect x="126.7" y="31" style="clip-path:url(#SVGID_00000038413252704951414100000009043439645107350693_);fill:#985805;" width="0.5" height="45"/>
				
					<rect x="127.2" y="31" style="clip-path:url(#SVGID_00000038413252704951414100000009043439645107350693_);fill:#985805;" width="0.3" height="45"/>
			</g>
		</g>
		<g>
			<g>
				<g>
					<path class="st144" d="M83.6,42.8c-0.1-1-0.2-1.9-0.4-2.8l-0.1,0c-0.1,0-0.1-0.1-0.1-0.2c-0.3-1.4-0.6-2.7-1.1-4.1
						c0-0.1,0-0.2,0-0.2l0.8-0.4c0,0,0.1,0.1,0.2,0.2c0.7,1.3,1.4,2.6,2,4c0.1,0.1,0,0.2,0,0.2l-0.1,0c0.4,0.9,0.7,1.9,1.1,2.8
						c0,0.1,0,0.2,0,0.2l-0.2,0c0.3,0.9,0.6,1.9,0.9,2.9c0,0.1,0,0.2-0.1,0.2l-0.2,0c0.3,1,0.5,1.9,0.8,2.9c0,0.1,0,0.2-0.1,0.2
						l-0.2,0c0.2,1,0.5,1.9,0.7,2.9c0,0.1,0,0.2-0.1,0.2l-0.2,0c0.2,1,0.4,1.9,0.6,2.9c0,0.1,0,0.2-0.1,0.2l-0.2,0
						c0.2,1,0.4,2,0.5,2.9c0,0.1,0,0.2-0.1,0.2l-0.2,0l0.5,2.9c0,0.1,0,0.2-0.1,0.2l-0.3,0l0.5,2.9c0,0.1,0,0.2-0.1,0.2l-0.3,0
						l0.4,2.9c0,0.1,0,0.2-0.2,0.2l-0.3,0l0.4,2.9c0,0.1-0.1,0.2-0.2,0.2l-0.3,0c0.1,1,0.3,2,0.4,2.9c0,0.1-0.1,0.2-0.2,0.2l-0.3,0
						c0.2,1,0.3,1.9,0.5,2.9c0,0.1-0.1,0.2-0.2,0.2h-3.9c-0.1,0-0.2-0.1-0.2-0.2c0.2-1,0.4-2,0.6-3l-0.3,0c-0.1,0-0.2-0.1-0.2-0.2
						c0.2-1,0.4-1.9,0.6-2.9l-0.3,0c-0.1,0-0.2-0.1-0.1-0.2c0.2-1,0.4-1.9,0.6-2.9l-0.3,0c-0.1,0-0.2-0.1-0.1-0.2
						c0.2-1,0.4-1.9,0.6-2.9l-0.3,0c-0.1,0-0.2-0.1-0.1-0.2c0.2-1,0.3-1.9,0.5-2.9l-0.3,0c-0.1,0-0.2-0.1-0.1-0.2
						c0.2-1,0.3-1.9,0.4-2.9l-0.2,0c-0.1,0-0.1-0.1-0.1-0.2c0.1-1,0.2-1.9,0.3-2.9l-0.2,0c-0.1,0-0.1-0.1-0.1-0.2
						c0.1-1,0.2-1.9,0.2-2.9l-0.2,0c-0.1,0-0.1-0.1-0.1-0.2c0.1-1,0.1-1.9,0.1-2.9l-0.2,0c-0.1,0-0.1-0.1-0.1-0.2c0-1,0-1.9,0-2.9
						l-0.2,0c-0.1,0-0.1-0.1-0.1-0.2c0-1-0.1-1.9-0.2-2.9l-0.2,0C83.7,43.1,83.6,43,83.6,42.8z"/>
				</g>
			</g>
			<g>
				<g>
					<path class="st144" d="M74.4,32c0.1,0-0.1,0.3-0.2,0.5C74,32.7,73.9,33,74,33c0.5,0.1,0.9,0.2,1.4,0.2c0.3,0,0.8-0.2,1.3-0.4
						c0.5-0.2,0.9-0.3,0.9-0.2c-0.2,0.4-0.6,0.6-0.9,0.7c-0.3,0.1-0.4,0.2-0.3,0.2c0.7,0.2,1.4,0.5,2,0.7c0.1,0,0.4,0,0.8,0
						c0.3,0,0.7-0.1,0.8,0c0.1,0-0.1,0.1-0.2,0.2c-0.2,0.1-0.3,0.2-0.2,0.2c1.1,0.4,1.9,0.8,2.5,1c0.6,0.2,0.9,0.3,0.9,0.3
						c0,0,0-0.1-0.1-0.4c-0.1-0.3-0.2-0.6-0.5-1.1c-0.3-0.5-0.7-1.1-1.3-1.8c-0.6-0.7-1.4-1.4-2.6-2.1c-0.1-0.1,0.2,0.4,0.4,0.9
						c0.2,0.5,0.4,1,0.3,0.9c-0.1-0.1-0.5-0.7-1-1.3c-0.2-0.3-0.5-0.6-0.7-0.8c-0.2-0.2-0.4-0.4-0.5-0.4c-0.3-0.1-0.7-0.3-1.1-0.4
						c-0.2,0,0.3,0.4,0.7,0.9c0.4,0.5,0.7,1,0.6,0.9c-0.1,0-0.6-0.6-1.2-1.1c-0.3-0.3-0.7-0.5-0.9-0.7c-0.3-0.2-0.5-0.3-0.5-0.3
						c-0.1,0-0.2,0-0.3,0c-0.5,0-1.1,0-1.6,0c-0.2,0,0.3,0.3,0.7,0.6c0.4,0.3,0.8,0.7,0.7,0.7c-0.1,0-0.8-0.3-1.5-0.6
						c-0.4-0.1-0.8-0.2-1.1-0.3c-0.3,0-0.6-0.1-0.6,0c-0.8,0.3-1.4,0.6-1.9,1c-0.1,0.1,0.2,0.1,0.4,0.2c0.3,0.1,0.5,0.2,0.4,0.2
						c-0.1,0.1-0.5,0.1-0.9,0.2c-0.4,0.1-0.9,0.2-0.9,0.3c-0.3,0.3-0.5,0.7-0.7,1c-0.1,0.1,0.2,0,0.5,0c0.3,0,0.6-0.1,0.5,0
						c-0.1,0.1-0.5,0.4-0.9,0.6c-0.4,0.3-0.7,0.6-0.8,0.7c-0.2,0.6-0.1,1-0.1,1c0,0,0.3-0.1,0.9-0.3c0.1,0,0.3-0.4,0.5-0.8
						c0.2-0.4,0.5-0.7,0.6-0.7c0.1,0-0.1,0.3-0.2,0.6c-0.1,0.3-0.2,0.6-0.1,0.6c0.4-0.1,0.8-0.3,1.2-0.4c0.1,0,0.3-0.5,0.5-0.9
						c0.3-0.4,0.6-0.8,0.7-0.8c0.1,0-0.1,0.3-0.2,0.7c-0.1,0.4-0.2,0.7-0.1,0.7c0.1,0,0.2-0.1,0.4-0.1c0.1,0,0.4-0.5,0.7-0.8
						c0.4-0.4,0.8-0.7,0.8-0.6c-0.1,0.3-0.3,0.7-0.5,0.9c-0.2,0.2-0.3,0.4-0.2,0.4c0.5-0.1,1.1-0.1,1.8-0.1c0.1,0,0.3-0.3,0.6-0.5
						C73.9,32.2,74.2,32,74.4,32z"/>
				</g>
			</g>
			<g>
				<g>
					<path class="st144" d="M75.7,34.9c0,0,0.1,0.2,0.2,0.5c0.1,0.2,0.2,0.5,0.3,0.5c0.2-0.2,0.5-0.3,0.7-0.5c0.1,0,0.1-0.2,0.2-0.3
						c0.1-0.2,0.2-0.4,0.3-0.5c0,0,0.1-0.1,0.1-0.1l0-0.1l0.1-0.1c0,0,0.1-0.1,0.1-0.1c0,0,0.1-0.1,0.1-0.1c0.1-0.1,0.2-0.2,0.2-0.1
						c0,0.2-0.1,0.4-0.2,0.6l-0.1,0.1c0,0,0,0.1-0.1,0.1c-0.1,0.1-0.1,0.1-0.1,0.2c-0.1,0.2-0.2,0.3-0.1,0.3l0.1,0c0,0,0,0,0.1,0
						l0.1,0c0,0,0.1,0,0.1,0l0.1,0c0.1,0,0.3,0,0.4,0c0.3,0,0.6,0,0.8-0.1c0.1,0,0.3-0.2,0.6-0.3c0.3-0.2,0.5-0.3,0.6-0.3
						c0.1,0,0,0.2-0.1,0.3C80,34.8,79.9,35,80,35c0.9,0,1.6,0,2,0.2c0.2,0.1,0.4,0.2,0.5,0.3c0.1,0.1,0.2,0.1,0.2,0.1
						c0,0,0.1-0.1,0.1-0.4c0-0.1,0-0.3-0.1-0.5c-0.1-0.2-0.2-0.4-0.3-0.7c-0.3-0.5-0.9-1-1.6-1.4c-0.4-0.2-0.8-0.4-1.3-0.6
						c-0.2-0.1-0.5-0.2-0.8-0.2c-0.3-0.1-0.6-0.1-0.9-0.2c-0.1,0,0,0.1,0.1,0.2c0.1,0.1,0.3,0.3,0.5,0.5c0.3,0.4,0.6,0.7,0.5,0.7
						c-0.1,0-0.6-0.5-1.2-0.8c0,0-0.1,0-0.1-0.1c0,0-0.1,0-0.1-0.1c-0.1,0-0.2-0.1-0.3-0.1c-0.2-0.1-0.4-0.1-0.5-0.2
						c-0.3-0.1-0.6-0.1-0.7-0.1c-0.4,0.1-0.8,0.2-1.2,0.3C74.8,32,75.4,32,76,32.2c0.6,0.2,1.1,0.5,0.9,0.5c0,0-0.2-0.1-0.5-0.1
						c-0.3-0.1-0.7-0.1-1.1-0.1c-0.4,0-0.8,0-1.2,0.1c-0.3,0.1-0.6,0.1-0.6,0.2c-0.1,0.1-0.2,0.1-0.3,0.2c-0.4,0.3-0.7,0.7-1,1.1
						c-0.1,0.1,0.4,0,0.9-0.1c0.5-0.1,1-0.1,0.9,0c0,0-0.2,0.1-0.5,0.2c-0.2,0.1-0.6,0.2-0.9,0.4c-0.6,0.3-1.2,0.7-1.2,0.8
						c-0.3,0.6-0.4,1.2-0.5,1.7c0,0.1,0.2,0,0.4,0c0.2-0.1,0.5-0.1,0.4,0c0,0.1-0.3,0.3-0.5,0.6c-0.3,0.3-0.5,0.5-0.5,0.6
						c0,0.4,0,0.7,0,1c0,0.1,0.2-0.1,0.4-0.2c0.2-0.1,0.4-0.3,0.5-0.2c0,0.1-0.2,0.5-0.4,0.8c-0.2,0.3-0.4,0.7-0.3,0.8
						c0.1,0.5,0.3,0.8,0.3,0.8c0,0,0.2-0.2,0.6-0.6c0,0,0.1-0.4,0.1-0.8c0-0.4,0.1-0.8,0.1-0.8c0,0,0.1,0.3,0.2,0.5
						c0.1,0.3,0.1,0.6,0.2,0.5c0.2-0.3,0.5-0.6,0.8-0.9c0-0.1,0-0.5-0.1-0.9c-0.1-0.5-0.1-0.9,0-1c0.1-0.1,0.2,0.3,0.3,0.6
						c0.1,0.3,0.3,0.7,0.4,0.6l0.2-0.3c0-0.1,0-0.6-0.1-1.1c0-0.5,0-1,0.1-0.9c0.2,0.3,0.3,0.6,0.4,0.9c0.1,0.3,0.1,0.5,0.1,0.4
						c0.3-0.4,0.7-0.8,1.1-1.2c0.1-0.1,0-0.4,0-0.7C75.6,35.3,75.6,34.9,75.7,34.9z"/>
				</g>
			</g>
			<g>
				<g>
					<path class="st144" d="M76.9,42.9c0-0.1,0.2,0.1,0.5,0.3c0.2,0.2,0.4,0.3,0.5,0.3c0.1-0.5,0.3-1,0.5-1.6c0-0.1,0-0.2,0-0.3
						c0-0.1,0-0.1,0-0.2c0-0.1,0-0.2,0-0.2l0-0.1c0,0,0-0.1,0-0.1l-0.1-0.2c0-0.1-0.1-0.2-0.1-0.4c-0.2-0.5-0.3-0.9-0.2-0.9
						c0.3,0.3,0.5,0.6,0.6,0.9c0.1,0.3,0.2,0.4,0.2,0.3c0.2-0.6,0.5-1.2,0.8-1.8c0-0.1,0-0.4,0.1-0.8c0-0.3,0.1-0.7,0.1-0.8
						c0.1-0.1,0.1,0.1,0.2,0.3c0.1,0.2,0.1,0.4,0.2,0.3l0.8-1.3c0.2-0.4,0.4-0.7,0.6-1c0.3-0.5,0.4-0.8,0.4-0.8c0,0-0.5,0-1.6,0.3
						c-0.5,0.2-1.2,0.4-2,0.9c-0.4,0.2-0.8,0.5-1.3,0.9c-0.4,0.4-0.9,0.9-1.3,1.5c-0.1,0.1,0.4-0.1,1-0.3c0.5-0.2,1-0.3,0.9-0.2
						c-0.1,0.1-0.8,0.4-1.5,0.9c-0.3,0.2-0.7,0.5-0.9,0.7l-0.1,0.1c0,0-0.1,0.1-0.1,0.1c0,0-0.1,0.1-0.1,0.1l0,0l0,0l0,0
						c0,0,0,0.1,0,0.1c-0.2,0.3-0.3,0.7-0.5,1c-0.1,0.1,0.4-0.2,0.9-0.6l0.2-0.1l0.1-0.1l0,0l0,0c0.1,0,0.1,0,0.2-0.1l0.1,0
						c0,0,0,0,0.1,0c0.2-0.1,0.3-0.2,0.3-0.1c0,0-0.1,0.1-0.1,0.1l-0.1,0.1L76,40.3c0,0-0.1,0.1-0.1,0.1c-0.2,0.2-0.5,0.5-0.8,0.7
						c-0.6,0.5-1.1,1.1-1.1,1.2l-0.1,0.3c-0.1,0.5-0.2,0.9-0.3,1.4c0,0.2,0.4-0.2,0.8-0.5c0.4-0.3,0.8-0.6,0.8-0.5
						c0,0.1-0.5,0.7-0.9,1.2c-0.4,0.6-0.8,1.2-0.8,1.3c0,0.7,0,1.3,0,1.9c0,0.1,0.2,0,0.4-0.2c0.2-0.2,0.4-0.3,0.4-0.2
						c0,0.1-0.2,0.5-0.3,0.9c-0.2,0.4-0.3,0.8-0.3,0.9c0.1,0.4,0.2,0.8,0.3,1.1c0,0.1,0.2-0.2,0.3-0.4c0.2-0.3,0.3-0.5,0.4-0.4
						c0.1,0.1,0,0.6-0.1,1c0,0.5-0.1,0.9,0,1c0.4,0.5,0.7,0.7,0.7,0.7c0,0,0.1-0.3,0.3-0.9c0-0.1-0.1-0.5-0.3-0.9
						c-0.1-0.4-0.2-0.9-0.2-1c0-0.1,0.2,0.3,0.3,0.5c0.2,0.3,0.3,0.6,0.4,0.5l0.4-1.3c0-0.1-0.2-0.5-0.4-1c-0.2-0.5-0.4-1-0.3-1.1
						c0-0.1,0.3,0.3,0.5,0.6c0.2,0.3,0.5,0.6,0.5,0.5l0.1-0.4c0-0.1-0.2-0.6-0.4-1.2c-0.2-0.6-0.3-1.1-0.2-1.1
						c0.3,0.2,0.5,0.6,0.7,0.9c0.1,0.3,0.2,0.5,0.3,0.5c0.2-0.6,0.4-1.4,0.6-2.1c0-0.1-0.1-0.5-0.3-0.8C77,43.4,76.9,43,76.9,42.9z"
						/>
				</g>
			</g>
			<g>
				<g>
					<path class="st144" d="M90.9,35.3c0,0,0.2-0.2,0.4-0.3c0.2-0.1,0.5-0.3,0.5-0.3c-0.4-0.4-0.9-0.8-1.5-1
						c-0.2-0.1-0.4-0.1-0.7-0.1c-0.3,0-0.6,0.1-0.8,0.2c-0.5,0.2-0.9,0.4-0.9,0.3c0.2-0.4,0.5-0.6,0.8-0.7c0.3-0.1,0.5-0.1,0.4-0.2
						c-0.4-0.1-0.9-0.2-1.3-0.3c-0.2,0-0.4,0-0.6,0l-0.1,0h0c0,0,0,0,0,0c0,0,0,0,0,0c0,0,0,0,0,0c-0.1,0-0.2,0-0.3,0
						c-0.1,0-0.4,0.2-0.7,0.4c-0.3,0.2-0.5,0.5-0.6,0.5c-0.1,0,0-0.2,0-0.3c0.1-0.2,0.1-0.4,0-0.3c-0.6,0.2-1,0.4-1.4,0.7
						c-0.2,0.1-0.3,0.3-0.5,0.4c-0.1,0.1-0.2,0.3-0.3,0.4c-0.2,0.3-0.2,0.5-0.2,0.6c0,0.2,0,0.2,0,0.2c0,0,0.1-0.1,0.3-0.1
						c0.1,0,0.2-0.1,0.4-0.1c0.1,0,0.3,0,0.5,0c0.4,0.1,0.8,0.2,1.4,0.3c0.1,0,0.3,0.1,0.4,0.1c0.1,0,0.3,0.1,0.4,0.2
						c0,0,0,0,0.1,0.1l0.1,0c0,0,0,0,0,0l0,0l0.1,0c0.1,0,0.1,0.1,0.2,0.1c0.1,0.1,0.3,0.2,0.5,0.2c0.1,0,0-0.3-0.2-0.7
						c-0.2-0.4-0.4-0.7-0.3-0.7c0,0,0.2,0.1,0.3,0.3c0.1,0.2,0.3,0.4,0.4,0.6c0.3,0.5,0.4,1,0.5,1c0.2,0.1,0.3,0.2,0.5,0.4
						c0.1,0.1,0-0.4,0-0.8c-0.1-0.4-0.2-0.9-0.2-0.8c0,0,0.1,0.2,0.2,0.4c0.1,0.2,0.2,0.5,0.3,0.7c0.2,0.5,0.2,1.1,0.3,1.1l0.1,0.1
						c0.2,0.2,0.4,0.4,0.6,0.6c0.1,0.1,0.1-0.3,0.2-0.7c0-0.4,0-0.8,0.1-0.8c0.1,0.1,0.2,0.6,0.3,1.1c0.1,0.5,0.1,1.1,0.2,1.1
						c0.3,0.3,0.7,0.6,1,0.9c0.1,0.1,0.2-0.1,0.2-0.4c0.1-0.2,0.2-0.4,0.2-0.4c0.1,0,0.1,0.4,0.1,0.7c0,0.3,0.1,0.6,0.1,0.7
						c0.2,0.2,0.5,0.4,0.7,0.5c0.1,0.1,0.2-1,0.3-0.9c0.2,0.1,0.4,1.4,0.6,1.5c0.5,0.3,0.7,0.4,0.7,0.4c0,0,0.1-0.3,0.1-0.8
						c0-0.1-1-1.1-1-1.2c0-0.1,1,0.6,1,0.5c0-0.3-0.1-0.7-0.2-1.2c0-0.1-0.4-0.3-0.8-0.5c-0.4-0.2-0.8-0.4-0.8-0.5
						c0-0.1,0.3,0,0.7,0c0.4,0.1,0.7,0.1,0.7,0.1c0-0.1-0.1-0.3-0.1-0.4c0-0.1-0.5-0.3-1-0.6c-0.5-0.2-1-0.4-0.9-0.4
						c0.3-0.1,0.7,0,1,0c0.3,0.1,0.5,0.2,0.5,0.1c-0.3-0.6-0.7-1.2-1.2-1.8c-0.1-0.1-0.5-0.1-0.9-0.1C91.4,35.3,91,35.4,90.9,35.3z"
						/>
				</g>
			</g>
			<g>
				<g>
					<path class="st144" d="M92.7,29.7c-0.1,0,0.1-0.3,0.2-0.5c0.1-0.3,0.3-0.5,0.2-0.5c-0.8-0.1-1.6,0-2.4,0.1
						c-0.2,0.1-0.5,0.2-0.8,0.4c-0.3,0.2-0.5,0.5-0.7,0.7c-0.2,0.2-0.4,0.5-0.5,0.6c0,0-0.1,0.1-0.1,0.1l-0.1,0.1c0,0,0,0.1-0.1,0
						c0-0.2-0.1-0.4,0.1-0.6c0.1-0.2,0.2-0.4,0.3-0.5c0.2-0.3,0.4-0.4,0.2-0.4c-0.1,0-0.3,0.1-0.4,0.2l-0.2,0.1l-0.1,0l0,0l-0.1,0
						l-0.1,0l0,0l-0.1,0l-0.2,0.1c-0.1,0.1-0.2,0.1-0.3,0.2c-0.4,0.3-0.8,0.5-1.1,0.8c-0.1,0.1-0.3,0.4-0.5,0.8
						c-0.2,0.4-0.3,0.7-0.4,0.8c-0.1,0.1-0.1-0.1-0.1-0.3c0-0.2,0-0.4-0.1-0.3c-0.5,0.5-0.9,1.1-1.2,1.6c-0.3,0.5-0.4,1-0.5,1.4
						c0,0.4,0,0.7,0.1,0.8c0.1,0.2,0.1,0.2,0.1,0.2c0,0,0.1-0.1,0.2-0.3c0.2-0.2,0.4-0.5,0.9-0.7c0.4-0.3,1-0.5,1.8-0.8
						c0.4-0.2,0.8-0.3,1.3-0.5c0.2-0.1,0.5-0.2,0.8-0.2c0.1,0,0.3-0.1,0.4-0.1l0.2-0.1l0.1,0c0,0,0,0,0,0c0,0,0,0,0,0l0,0
						c0,0,0,0,0,0c0,0,0,0,0,0c0,0,0,0,0,0c0,0,0,0,0,0c0,0,0,0,0,0c-0.2-0.1-0.4-0.1-0.6-0.2c-0.5-0.1-1-0.2-0.9-0.3
						c0.1,0,0.3,0,0.6,0c0.1,0,0.3,0,0.5,0c0.1,0,0.2,0,0.3,0l0.1,0c0,0,0,0,0,0c0,0,0,0,0.1,0l0.1,0c0.4,0.1,0.7,0.2,1,0.2
						c0.3,0.1,0.4,0.1,0.5,0.1c0.3,0,0.6,0,0.9,0c0.1,0-0.3-0.3-0.8-0.6c-0.5-0.3-1-0.5-0.9-0.5c0,0,0.2,0,0.5,0.1
						c0.3,0.1,0.6,0.2,1,0.3c0.3,0.1,0.6,0.3,0.9,0.5c0.2,0.1,0.4,0.2,0.4,0.2c0.1,0,0.2,0,0.2,0c0.4,0,0.8,0.1,1.1,0.2
						c0.1,0-0.1-0.4-0.4-0.7c-0.3-0.4-0.6-0.7-0.5-0.7c0.1,0,0.2,0.1,0.5,0.2c0.2,0.2,0.5,0.4,0.7,0.6c0.5,0.4,0.9,0.9,1,1
						c0.6,0.2,1.1,0.4,1.5,0.6c0.1,0,0.1-0.2,0-0.4c0-0.2-0.1-0.5,0-0.5c0.1,0,0.3,0.4,0.5,0.7c0.2,0.3,0.4,0.7,0.5,0.7
						c0.3,0.2,0.7,0.3,1,0.5c0.1,0,0.1-0.2,0-0.5c-0.1-0.3-0.1-0.6,0-0.6c0.1,0.1,0.4,0.5,0.7,0.9c0.3,0.4,0.5,0.8,0.6,0.9
						c0.6,0.3,0.9,0.5,0.9,0.5c0,0,0-0.4-0.1-1c0-0.1-0.4-0.4-0.8-0.7c-0.4-0.3-0.8-0.6-0.9-0.7c0-0.1,0.3,0.1,0.7,0.2
						c0.4,0.2,0.7,0.3,0.7,0.3c-0.2-0.4-0.4-0.9-0.8-1.5c-0.1-0.1-0.7-0.3-1.3-0.5c-0.6-0.2-1.2-0.3-1.3-0.3
						c-0.1-0.1,0.4-0.1,0.8-0.1c0.5,0,0.9,0,0.8-0.1c-0.1-0.1-0.3-0.3-0.4-0.4c-0.1-0.1-0.9-0.3-1.6-0.3c-0.7-0.1-1.4,0-1.3-0.1
						c0.3-0.2,0.8-0.3,1.2-0.4c0.4,0,0.7,0,0.7,0c-0.8-0.5-1.7-1-2.9-1.3c-0.2,0-0.6,0.1-1.1,0.3C93.3,29.5,92.9,29.7,92.7,29.7z"/>
				</g>
			</g>
			<g>
				<g>
					<path class="st144" d="M91.9,29.5c-0.1-0.1,0.2-0.2,0.5-0.2c0.3-0.1,0.6-0.2,0.5-0.2c-0.3-0.3-0.7-0.6-1.1-0.9
						c-0.4-0.3-0.8-0.6-1.3-0.8c-0.3-0.1-0.7-0.2-1.1-0.2c-0.4,0-0.9,0.1-1.2,0.2c-0.4,0.1-0.7,0.3-0.9,0.4
						c-0.2,0.1-0.3,0.2-0.3,0.1c0-0.2,0.1-0.4,0.3-0.6c0.2-0.2,0.4-0.3,0.6-0.4c0.4-0.2,0.7-0.2,0.5-0.3c-0.8-0.1-1.6,0-2.2,0.2
						c-0.3,0.1-0.6,0.2-0.9,0.3c-0.3,0.1-0.6,0.3-0.8,0.5c-0.1,0.1-0.5,0.5-0.7,1c-0.2,0.4-0.3,0.9-0.4,1c-0.1,0.1-0.1-0.1-0.2-0.3
						c0-0.2-0.1-0.4-0.2-0.3c-0.6,0.8-0.9,1.6-1,2.2c-0.1,0.7-0.1,1.2,0,1.6c0.1,0.4,0.2,0.7,0.3,0.9c0.1,0.2,0.1,0.3,0.1,0.3
						c0,0,0.1-0.2,0.2-0.4c0.1-0.3,0.3-0.7,0.7-1.2c0.4-0.5,0.9-1,1.6-1.5c0.4-0.2,0.8-0.4,1.2-0.5c0.1,0,0.2,0,0.3-0.1
						c0.1,0,0.2,0,0.3,0c0.2,0,0.5,0,0.7,0c0,0,0-0.1-0.1-0.2c-0.1-0.1-0.3-0.3-0.5-0.4c-0.2-0.1-0.5-0.2-0.6-0.3
						c-0.2-0.1-0.3-0.1-0.2-0.1c0,0,0.1,0,0.2,0c0.1,0,0.2,0,0.4,0.1c0.3,0.1,0.7,0.2,1,0.4c0.6,0.4,1,0.9,1,0.9
						c0.2,0.1,0.5,0.3,0.7,0.5c0.1,0.1,0-0.4-0.3-0.9c-0.1-0.2-0.3-0.5-0.4-0.7c-0.1-0.2-0.2-0.3-0.1-0.2c0,0,0.2,0.1,0.4,0.4
						c0.2,0.2,0.4,0.5,0.6,0.9c0.4,0.7,0.6,1.4,0.7,1.4c0.1,0.1,0.1,0.1,0.2,0.2c0.3,0.4,0.6,0.7,0.9,1.1c0.1,0.1,0.1-0.4,0.1-0.9
						c0-0.5-0.1-1.1,0-1c0,0,0.1,0.3,0.2,0.6c0.1,0.3,0.2,0.7,0.3,1.1c0.2,0.8,0.3,1.5,0.4,1.7l1.2,1.8c0.1,0.1,0.2-0.1,0.2-0.4
						c0.1-0.3,0.1-0.6,0.2-0.4c0.1,0.1,0.2,0.6,0.2,1.1c0.1,0.5,0.1,1,0.2,1c0.3,0.4,0.6,0.7,0.8,1.1c0.2,0.2,0.1-1.3,0.3-1.2
						c0.1,0.1,0.3,0.7,0.4,1.2c0.1,0.5,0.3,1.1,0.4,1.2c0.5,0.6,0.9,0.8,0.8,0.8c0,0,0-0.4,0-1.1c0-0.1-0.3-0.6-0.6-1.1
						c-0.3-0.5-0.6-1-0.6-1.1c0-0.1,0.3,0.2,0.6,0.5c0.3,0.3,0.6,0.6,0.6,0.5c0-0.5-0.1-1.1-0.3-1.8c0-0.1-0.5-0.6-1-1.1
						c-0.5-0.5-1-1-1-1.1c0-0.1,0.4,0.1,0.8,0.4c0.4,0.2,0.8,0.5,0.8,0.4c-0.1-0.2-0.1-0.4-0.2-0.6c0-0.1-0.6-0.7-1.2-1.2
						c-0.6-0.5-1.2-1-1.1-1c0.4,0,0.9,0.2,1.2,0.5c0.4,0.2,0.6,0.5,0.6,0.4c-0.4-0.9-0.9-1.9-1.6-2.9c-0.1-0.2-0.6-0.4-1.1-0.5
						C92.6,29.7,92.1,29.6,91.9,29.5z"/>
				</g>
			</g>
			<g>
				<g>
					<path class="st144" d="M89.7,40.6c0-0.1,0.2-0.1,0.5-0.1c0.3,0,0.6-0.1,0.5-0.1c-0.3-0.5-0.7-1.1-1.1-1.6
						c-0.3-0.3-0.9-0.5-1.5-0.5c-0.5-0.1-1-0.1-0.9-0.1c0.3-0.3,0.8-0.3,1.1-0.3c0.3,0,0.5,0.1,0.4,0c-0.7-0.6-1.3-1.1-2-1.5
						c-0.1-0.1-0.4-0.1-0.8-0.1c-0.4,0-0.7,0-0.8,0c-0.1,0,0.1-0.1,0.2-0.2c0.2-0.1,0.3-0.2,0.3-0.2c-1.1-0.5-2-0.7-2.6-0.8
						c-0.6-0.1-0.9,0-0.9,0c0,0,0.1,0.1,0.2,0.3c0.1,0.2,0.3,0.5,0.6,0.9c0.3,0.4,0.7,0.9,1.1,1.5c0.5,0.6,1,1.3,1.6,2.1
						c0.1,0.1,0.1-0.4,0.1-0.9c0-0.5-0.1-1,0-0.9c0.1,0.1,0.3,0.7,0.4,1.4c0.1,0.6,0.2,1.3,0.2,1.4c0.1,0.2,0.3,0.5,0.4,0.7
						c0.1,0.1,0.1-0.4,0.2-0.9c0-0.5,0-1,0.1-1c0,0.1,0.2,0.7,0.2,1.4c0.1,0.7,0,1.3,0,1.3l0.1,0.2c0.2,0.3,0.3,0.6,0.5,0.9
						c0,0.1,0.2-0.3,0.4-0.7c0.1-0.4,0.2-0.9,0.3-0.8c0.1,0.1,0.1,0.7,0,1.3c-0.1,0.6-0.2,1.1-0.2,1.2c0.2,0.4,0.4,0.8,0.5,1.2
						c0,0.1,0.2,0,0.4-0.2c0.2-0.2,0.3-0.3,0.4-0.2c0,0.1-0.1,0.4-0.2,0.7c-0.1,0.3-0.3,0.6-0.3,0.6c0.1,0.3,0.1,0.6,0.2,0.8
						c0,0.1,0.2-0.1,0.4-0.2c0.2-0.2,0.4-0.4,0.4-0.3c0,0.1-0.1,0.5-0.3,0.9c-0.2,0.4-0.4,0.7-0.4,0.8c0.1,0.6,0.1,0.9,0.1,0.9
						c0,0,0.3-0.1,0.8-0.5c0.1,0,0.2-0.5,0.2-0.9c0-0.4,0-0.9,0.1-1c0,0,0.1,0.3,0.2,0.6c0.1,0.3,0.1,0.7,0.2,0.6
						c0.3-0.3,0.5-0.8,0.7-1.3c0-0.1-0.1-0.7-0.4-1.2c-0.2-0.5-0.5-1-0.5-1c0-0.1,0.3,0.2,0.6,0.5c0.3,0.3,0.6,0.6,0.6,0.5
						c0-0.2,0-0.3,0.1-0.5c0-0.1-0.1-0.2-0.2-0.5c-0.1-0.2-0.3-0.5-0.5-0.8c-0.4-0.5-0.8-0.9-0.7-0.9c0.4,0,0.7,0.3,1,0.5
						c0.3,0.3,0.4,0.5,0.4,0.4c-0.1-0.8-0.3-1.7-0.7-2.6c-0.1-0.1-0.4-0.3-0.8-0.5C90.2,40.8,89.8,40.7,89.7,40.6z"/>
				</g>
			</g>
		</g>
		<g>
			<g>
				<g>
					<path class="st144" d="M108.7,47.4c0.1-0.6,0.1-1.2,0.3-1.8l0.1,0c0,0,0.1,0,0.1-0.1c0.2-0.8,0.4-1.7,0.7-2.5
						c0-0.1,0-0.1,0-0.2l-0.5-0.3c0,0-0.1,0-0.1,0.1c-0.5,0.8-0.9,1.6-1.2,2.4c0,0.1,0,0.1,0,0.2l0.1,0c-0.2,0.6-0.5,1.1-0.7,1.7
						c0,0.1,0,0.1,0,0.2l0.1,0c-0.2,0.6-0.4,1.2-0.6,1.8c0,0.1,0,0.1,0,0.1l0.1,0c-0.2,0.6-0.3,1.2-0.5,1.8c0,0.1,0,0.1,0,0.1l0.1,0
						c-0.1,0.6-0.3,1.2-0.4,1.8c0,0.1,0,0.1,0.1,0.1l0.1,0c-0.1,0.6-0.3,1.2-0.4,1.8c0,0.1,0,0.1,0.1,0.1l0.1,0
						c-0.1,0.6-0.2,1.2-0.3,1.8c0,0.1,0,0.1,0.1,0.1l0.1,0l-0.3,1.8c0,0.1,0,0.1,0.1,0.1l0.2,0l-0.3,1.8c0,0.1,0,0.1,0.1,0.1l0.2,0
						l-0.3,1.8c0,0.1,0,0.1,0.1,0.1l0.2,0l-0.3,1.8c0,0.1,0,0.1,0.1,0.1l0.2,0c-0.1,0.6-0.2,1.2-0.3,1.8c0,0.1,0,0.1,0.1,0.1l0.2,0
						c-0.1,0.6-0.2,1.2-0.3,1.8c0,0.1,0,0.1,0.1,0.1h2.4c0.1,0,0.1-0.1,0.1-0.1c-0.1-0.6-0.3-1.2-0.4-1.8l0.2,0
						c0.1,0,0.1-0.1,0.1-0.1c-0.1-0.6-0.3-1.2-0.4-1.8l0.2,0c0.1,0,0.1-0.1,0.1-0.1c-0.1-0.6-0.3-1.2-0.4-1.8l0.2,0
						c0.1,0,0.1-0.1,0.1-0.1c-0.1-0.6-0.2-1.2-0.3-1.8l0.2,0c0.1,0,0.1-0.1,0.1-0.1c-0.1-0.6-0.2-1.2-0.3-1.8l0.2,0
						c0.1,0,0.1-0.1,0.1-0.1c-0.1-0.6-0.2-1.2-0.3-1.8l0.1,0c0.1,0,0.1-0.1,0.1-0.1c-0.1-0.6-0.1-1.2-0.2-1.8l0.1,0
						c0.1,0,0.1-0.1,0.1-0.1c-0.1-0.6-0.1-1.2-0.1-1.8l0.1,0c0,0,0.1-0.1,0.1-0.1c0-0.6-0.1-1.2-0.1-1.8l0.1,0c0,0,0.1-0.1,0.1-0.1
						c0-0.6,0-1.2,0-1.8l0.1,0c0,0,0.1,0,0.1-0.1c0-0.6,0.1-1.2,0.1-1.8l0.1,0C108.6,47.5,108.7,47.5,108.7,47.4z"/>
				</g>
			</g>
			<g>
				<g>
					<path class="st144" d="M114.4,40.7c0,0,0,0.2,0.1,0.3c0.1,0.2,0.1,0.3,0.1,0.3c-0.3,0-0.6,0.1-0.9,0.1c-0.2,0-0.5-0.1-0.8-0.2
						c-0.3-0.1-0.6-0.2-0.5-0.2c0.1,0.2,0.4,0.3,0.5,0.4c0.2,0.1,0.3,0.1,0.2,0.1c-0.5,0.1-0.9,0.3-1.3,0.4c-0.1,0-0.3,0-0.5,0
						c-0.2,0-0.4,0-0.5,0c-0.1,0,0,0.1,0.1,0.1c0.1,0.1,0.2,0.1,0.1,0.1c-0.7,0.3-1.2,0.5-1.5,0.6c-0.4,0.1-0.5,0.2-0.5,0.2
						c0,0,0-0.1,0.1-0.2c0-0.2,0.1-0.4,0.3-0.7c0.2-0.3,0.4-0.7,0.8-1.1c0.4-0.4,0.9-0.9,1.6-1.3c0.1,0-0.1,0.3-0.2,0.6
						c-0.1,0.3-0.3,0.6-0.2,0.6c0.1,0,0.3-0.4,0.6-0.8c0.1-0.2,0.3-0.4,0.4-0.5c0.1-0.1,0.3-0.2,0.3-0.3c0.2-0.1,0.4-0.2,0.7-0.2
						c0.1,0-0.2,0.3-0.4,0.5c-0.2,0.3-0.4,0.6-0.3,0.6c0,0,0.4-0.4,0.8-0.7c0.2-0.2,0.4-0.3,0.6-0.4c0.2-0.1,0.3-0.2,0.3-0.2
						c0.1,0,0.1,0,0.2,0c0.3,0,0.7,0,1,0c0.1,0-0.2,0.2-0.5,0.4c-0.3,0.2-0.5,0.4-0.4,0.4c0.1,0,0.5-0.2,0.9-0.3
						c0.2-0.1,0.5-0.1,0.7-0.2c0.2,0,0.3,0,0.4,0c0.5,0.2,0.9,0.4,1.2,0.6c0.1,0.1-0.1,0.1-0.3,0.1c-0.2,0-0.3,0.1-0.3,0.1
						c0,0,0.3,0.1,0.6,0.1c0.3,0.1,0.5,0.1,0.6,0.2c0.2,0.2,0.3,0.4,0.4,0.6c0,0.1-0.2,0-0.3,0c-0.2,0-0.4,0-0.3,0
						c0,0.1,0.3,0.2,0.5,0.4c0.2,0.2,0.5,0.3,0.5,0.4c0.1,0.4,0.1,0.6,0.1,0.6c0,0-0.2-0.1-0.5-0.2c0,0-0.2-0.3-0.3-0.5
						c-0.1-0.2-0.3-0.4-0.4-0.5c0,0,0.1,0.2,0.1,0.4c0.1,0.2,0.1,0.4,0.1,0.4c-0.2-0.1-0.5-0.2-0.7-0.3c0,0-0.2-0.3-0.3-0.5
						c-0.2-0.3-0.4-0.5-0.4-0.5c-0.1,0,0.1,0.2,0.1,0.4c0.1,0.2,0.1,0.4,0.1,0.4c-0.1,0-0.2,0-0.2-0.1c0,0-0.2-0.3-0.5-0.5
						c-0.2-0.2-0.5-0.4-0.5-0.4c0.1,0.2,0.2,0.4,0.3,0.6c0.1,0.2,0.2,0.3,0.1,0.2c-0.3,0-0.7-0.1-1.1-0.1c-0.1,0-0.2-0.2-0.4-0.3
						C114.7,40.8,114.5,40.7,114.4,40.7z"/>
				</g>
			</g>
			<g>
				<g>
					<path class="st144" d="M113.6,42.5c0,0-0.1,0.1-0.1,0.3c-0.1,0.2-0.1,0.3-0.2,0.3c-0.1-0.1-0.3-0.2-0.4-0.3
						c0,0-0.1-0.1-0.1-0.2c-0.1-0.1-0.1-0.2-0.2-0.3c0,0,0-0.1-0.1-0.1l0,0l0,0c0,0,0,0-0.1-0.1c0,0,0,0-0.1-0.1
						c-0.1-0.1-0.1-0.1-0.1-0.1c0,0.1,0.1,0.2,0.1,0.3l0,0.1c0,0,0,0,0,0.1c0,0,0.1,0.1,0.1,0.1c0.1,0.1,0.1,0.2,0.1,0.2l0,0
						c0,0,0,0-0.1,0l0,0c0,0,0,0,0,0l-0.1,0c-0.1,0-0.2,0-0.3,0c-0.2,0-0.3,0-0.5,0c0,0-0.2-0.1-0.4-0.2c-0.2-0.1-0.3-0.2-0.4-0.2
						c-0.1,0,0,0.1,0.1,0.2c0.1,0.1,0.1,0.2,0.1,0.2c-0.6,0-1,0-1.2,0.1c-0.1,0-0.2,0.1-0.3,0.2c-0.1,0-0.1,0.1-0.1,0.1
						c0,0,0-0.1-0.1-0.2c0-0.1,0-0.2,0-0.3c0-0.1,0.1-0.3,0.2-0.4c0.2-0.3,0.5-0.6,1-0.9c0.2-0.1,0.5-0.3,0.8-0.4
						c0.1-0.1,0.3-0.1,0.5-0.1c0.2,0,0.3-0.1,0.5-0.1c0,0,0,0-0.1,0.1c-0.1,0.1-0.2,0.2-0.3,0.3c-0.2,0.2-0.4,0.5-0.3,0.4
						c0.1,0,0.4-0.3,0.8-0.5c0,0,0,0,0.1,0c0,0,0,0,0.1,0c0.1,0,0.1-0.1,0.2-0.1c0.1,0,0.2-0.1,0.3-0.1c0.2-0.1,0.4-0.1,0.4-0.1
						c0.2,0,0.5,0.1,0.7,0.2c0.1,0-0.3,0.1-0.7,0.2c-0.4,0.1-0.7,0.3-0.6,0.3c0,0,0.1,0,0.3-0.1c0.2,0,0.4-0.1,0.7-0.1
						c0.3,0,0.5,0,0.7,0.1c0.2,0,0.3,0.1,0.4,0.1c0.1,0,0.1,0.1,0.2,0.1c0.2,0.2,0.4,0.4,0.6,0.7c0.1,0.1-0.2,0-0.5,0
						c-0.3,0-0.6,0-0.5,0c0,0,0.1,0.1,0.3,0.1c0.2,0.1,0.3,0.1,0.5,0.2c0.4,0.2,0.7,0.4,0.8,0.5c0.2,0.4,0.3,0.7,0.3,1
						c0,0.1-0.1,0-0.3,0c-0.1,0-0.3-0.1-0.3,0c0,0.1,0.2,0.2,0.3,0.4c0.2,0.2,0.3,0.3,0.3,0.4c0,0.2,0,0.4,0,0.6
						c0,0.1-0.1,0-0.3-0.1c-0.1-0.1-0.3-0.2-0.3-0.1c0,0.1,0.1,0.3,0.2,0.5c0.1,0.2,0.2,0.4,0.2,0.5c-0.1,0.3-0.2,0.5-0.2,0.5
						c0,0-0.1-0.1-0.4-0.3c0,0,0-0.3,0-0.5c0-0.2,0-0.5-0.1-0.5c0,0-0.1,0.2-0.1,0.3c0,0.2-0.1,0.4-0.1,0.3
						c-0.1-0.2-0.3-0.3-0.5-0.5c0,0,0-0.3,0.1-0.6c0-0.3,0-0.6,0-0.6c0,0-0.1,0.2-0.2,0.4c-0.1,0.2-0.2,0.4-0.2,0.4l-0.1-0.2
						c0,0,0-0.3,0-0.7c0-0.3,0-0.6,0-0.6c-0.1,0.2-0.2,0.4-0.2,0.6c0,0.2-0.1,0.3-0.1,0.3c-0.2-0.2-0.4-0.5-0.6-0.7c0,0,0-0.2,0-0.4
						C113.7,42.7,113.6,42.5,113.6,42.5z"/>
				</g>
			</g>
			<g>
				<g>
					<path class="st144" d="M112.8,47.4c0,0-0.1,0.1-0.3,0.2c-0.1,0.1-0.3,0.2-0.3,0.2c-0.1-0.3-0.2-0.6-0.3-1c0,0,0-0.1,0-0.2
						c0,0,0-0.1,0-0.1c0,0,0-0.1,0-0.1l0-0.1c0,0,0,0,0-0.1l0-0.1c0-0.1,0.1-0.1,0.1-0.2c0.1-0.3,0.2-0.6,0.1-0.5
						c-0.2,0.2-0.3,0.4-0.4,0.5c-0.1,0.2-0.1,0.3-0.1,0.2c-0.1-0.4-0.3-0.8-0.5-1.1c0,0,0-0.3,0-0.5c0-0.2,0-0.4-0.1-0.5
						c0-0.1-0.1,0.1-0.1,0.2c0,0.1-0.1,0.2-0.1,0.2l-0.5-0.8c-0.2-0.2-0.3-0.4-0.4-0.6c-0.2-0.3-0.3-0.5-0.3-0.5c0,0,0.3,0,1,0.2
						c0.3,0.1,0.7,0.3,1.2,0.6c0.2,0.1,0.5,0.3,0.8,0.6c0.3,0.2,0.6,0.5,0.8,0.9c0.1,0.1-0.3-0.1-0.6-0.2c-0.3-0.1-0.6-0.2-0.6-0.1
						c0.1,0.1,0.5,0.2,0.9,0.5c0.2,0.1,0.4,0.3,0.6,0.5l0.1,0.1c0,0,0,0,0,0c0,0,0,0,0.1,0l0,0l0,0l0,0c0,0,0,0,0,0
						c0.1,0.2,0.2,0.4,0.3,0.6c0,0.1-0.3-0.1-0.6-0.3l-0.1-0.1l-0.1,0l0,0l0,0c0,0-0.1,0-0.1,0l0,0c0,0,0,0,0,0
						c-0.1-0.1-0.2-0.1-0.2-0.1c0,0,0,0,0.1,0.1l0,0l0,0c0,0,0.1,0,0.1,0.1c0.1,0.1,0.3,0.3,0.5,0.5c0.4,0.3,0.7,0.7,0.7,0.8
						l0.1,0.2c0.1,0.3,0.1,0.6,0.2,0.8c0,0.1-0.2-0.1-0.5-0.3c-0.2-0.2-0.5-0.4-0.5-0.3c0,0.1,0.3,0.4,0.6,0.8
						c0.3,0.4,0.5,0.7,0.5,0.8c0,0.4,0,0.8,0,1.2c0,0.1-0.1,0-0.3-0.1c-0.1-0.1-0.2-0.2-0.3-0.1c0,0.1,0.1,0.3,0.2,0.5
						c0.1,0.2,0.2,0.5,0.2,0.5c-0.1,0.3-0.1,0.5-0.2,0.7c0,0.1-0.1-0.1-0.2-0.3c-0.1-0.2-0.2-0.3-0.2-0.3c0,0.1,0,0.4,0,0.6
						c0,0.3,0,0.6,0,0.6c-0.2,0.3-0.4,0.4-0.4,0.4c0,0-0.1-0.2-0.2-0.5c0,0,0.1-0.3,0.2-0.5c0.1-0.3,0.1-0.5,0.1-0.6
						c0,0-0.1,0.2-0.2,0.3c-0.1,0.2-0.2,0.3-0.2,0.3l-0.3-0.8c0,0,0.1-0.3,0.2-0.6c0.1-0.3,0.2-0.6,0.2-0.7c0-0.1-0.2,0.2-0.3,0.4
						c-0.1,0.2-0.3,0.4-0.3,0.3l-0.1-0.3c0,0,0.1-0.4,0.2-0.7c0.1-0.3,0.2-0.7,0.2-0.6c-0.2,0.1-0.3,0.4-0.4,0.5
						c-0.1,0.2-0.1,0.3-0.2,0.3c-0.1-0.4-0.2-0.8-0.4-1.3c0-0.1,0.1-0.3,0.2-0.5C112.8,47.7,112.9,47.5,112.8,47.4z"/>
				</g>
			</g>
			<g>
				<g>
					<path class="st144" d="M104.2,42.7c0,0-0.1-0.1-0.3-0.2c-0.2-0.1-0.3-0.2-0.3-0.2c0.3-0.2,0.6-0.5,0.9-0.6c0.1,0,0.3-0.1,0.4,0
						c0.2,0,0.3,0.1,0.5,0.1c0.3,0.1,0.5,0.2,0.5,0.2c-0.1-0.2-0.3-0.4-0.5-0.5c-0.2-0.1-0.3-0.1-0.2-0.1c0.3-0.1,0.5-0.1,0.8-0.2
						c0.1,0,0.3,0,0.4,0l0,0h0c0,0,0,0,0,0c0,0,0,0,0,0c0,0,0,0,0,0c0.1,0,0.1,0,0.2,0c0.1,0,0.3,0.1,0.4,0.3
						c0.2,0.1,0.3,0.3,0.4,0.3c0.1,0,0-0.1,0-0.2c0-0.1-0.1-0.2,0-0.2c0.4,0.1,0.6,0.3,0.9,0.4c0.1,0.1,0.2,0.2,0.3,0.3
						c0.1,0.1,0.2,0.2,0.2,0.3c0.1,0.2,0.1,0.3,0.1,0.4c0,0.1,0,0.1,0,0.1c0,0,0,0-0.2-0.1c-0.1,0-0.1,0-0.2,0c-0.1,0-0.2,0-0.3,0
						c-0.2,0-0.5,0.1-0.9,0.2c-0.1,0-0.2,0.1-0.3,0.1c-0.1,0-0.2,0.1-0.2,0.1c0,0,0,0-0.1,0l0,0c0,0,0,0,0,0l0,0l0,0
						c0,0-0.1,0-0.1,0.1c-0.1,0-0.2,0.1-0.3,0.2c0,0,0-0.2,0.1-0.4c0.1-0.2,0.3-0.5,0.2-0.4c0,0-0.1,0.1-0.2,0.2
						c-0.1,0.1-0.2,0.2-0.3,0.4c-0.2,0.3-0.3,0.6-0.3,0.6c-0.1,0.1-0.2,0.1-0.3,0.2c0,0,0-0.2,0-0.5c0-0.3,0.1-0.6,0.1-0.5
						c0,0-0.1,0.1-0.1,0.2c-0.1,0.1-0.1,0.3-0.2,0.5c-0.1,0.3-0.2,0.7-0.2,0.7l-0.1,0.1c-0.1,0.1-0.3,0.2-0.4,0.4
						c0,0-0.1-0.2-0.1-0.5c0-0.2,0-0.5-0.1-0.5c0,0-0.1,0.4-0.2,0.7c0,0.3-0.1,0.7-0.1,0.7c-0.2,0.2-0.4,0.4-0.6,0.6
						c0,0-0.1-0.1-0.1-0.2c0-0.1-0.1-0.3-0.1-0.2c0,0-0.1,0.2-0.1,0.4c0,0.2,0,0.4-0.1,0.4c-0.1,0.1-0.3,0.2-0.4,0.3
						c-0.1,0.1-0.1-0.6-0.2-0.5c-0.1,0.1-0.3,0.9-0.4,0.9c-0.3,0.2-0.5,0.2-0.5,0.2c0,0,0-0.2-0.1-0.5c0-0.1,0.6-0.7,0.6-0.8
						c0-0.1-0.6,0.4-0.6,0.3c0-0.2,0-0.5,0.1-0.7c0,0,0.3-0.2,0.5-0.3c0.3-0.1,0.5-0.3,0.5-0.3c0,0-0.2,0-0.4,0
						c-0.2,0-0.5,0.1-0.4,0c0-0.1,0.1-0.2,0.1-0.2c0,0,0.3-0.2,0.6-0.3c0.3-0.1,0.6-0.3,0.5-0.3c-0.2-0.1-0.5,0-0.6,0
						c-0.2,0.1-0.3,0.1-0.3,0.1c0.2-0.4,0.4-0.7,0.7-1.1c0.1-0.1,0.3-0.1,0.5-0.1C103.9,42.8,104.1,42.8,104.2,42.7z"/>
				</g>
			</g>
			<g>
				<g>
					<path class="st144" d="M103.1,39.3c0,0,0-0.2-0.1-0.3c-0.1-0.2-0.2-0.3-0.1-0.3c0.5,0,1,0,1.5,0.1c0.1,0,0.3,0.1,0.5,0.3
						c0.2,0.1,0.3,0.3,0.4,0.4c0.1,0.1,0.2,0.3,0.3,0.4c0,0,0,0,0.1,0.1l0,0c0,0,0,0,0,0c0-0.1,0-0.3,0-0.4c0-0.1-0.1-0.2-0.2-0.3
						c-0.1-0.2-0.2-0.3-0.1-0.2c0.1,0,0.2,0.1,0.2,0.1l0.1,0l0.1,0l0,0l0,0l0,0l0,0l0.1,0l0.1,0.1c0.1,0,0.1,0.1,0.2,0.1
						c0.3,0.2,0.5,0.3,0.7,0.5c0.1,0,0.2,0.3,0.3,0.5c0.1,0.2,0.2,0.4,0.2,0.5c0.1,0.1,0.1-0.1,0.1-0.2c0-0.1,0-0.2,0.1-0.2
						c0.3,0.3,0.6,0.7,0.8,1c0.2,0.3,0.3,0.6,0.3,0.8c0,0.2,0,0.4-0.1,0.5c0,0.1-0.1,0.1-0.1,0.1c0,0,0-0.1-0.1-0.2
						c-0.1-0.1-0.3-0.3-0.5-0.4c-0.3-0.2-0.6-0.3-1.1-0.5c-0.2-0.1-0.5-0.2-0.8-0.3c-0.1-0.1-0.3-0.1-0.5-0.2c-0.1,0-0.2,0-0.2-0.1
						l-0.1,0l-0.1,0c0,0,0,0,0,0c0,0,0,0,0,0l0,0c0,0,0,0,0,0c0,0,0,0,0,0c0,0,0,0,0,0c0,0,0,0,0,0c0,0,0,0,0,0
						c0.1,0,0.2-0.1,0.4-0.1c0.3-0.1,0.6-0.1,0.6-0.2c0,0-0.2,0-0.4,0c-0.1,0-0.2,0-0.3,0c-0.1,0-0.1,0-0.2,0l0,0c0,0,0,0,0,0
						c0,0,0,0,0,0l0,0c-0.2,0-0.4,0.1-0.6,0.1c-0.2,0-0.3,0.1-0.3,0.1c-0.2,0-0.4,0-0.5,0c-0.1,0,0.2-0.2,0.5-0.4
						c0.3-0.2,0.6-0.3,0.5-0.3c0,0-0.2,0-0.3,0.1c-0.2,0-0.4,0.1-0.6,0.2c-0.2,0.1-0.4,0.2-0.5,0.3c-0.1,0.1-0.2,0.1-0.3,0.1
						c-0.1,0-0.1,0-0.2,0c-0.2,0-0.5,0.1-0.7,0.1c-0.1,0,0.1-0.2,0.2-0.5c0.2-0.2,0.4-0.4,0.3-0.4c0,0-0.1,0.1-0.3,0.2
						c-0.1,0.1-0.3,0.2-0.4,0.4c-0.3,0.3-0.5,0.6-0.6,0.6c-0.3,0.1-0.7,0.2-1,0.4c-0.1,0-0.1-0.1,0-0.3c0-0.2,0.1-0.3,0-0.3
						c-0.1,0-0.2,0.2-0.3,0.4c-0.1,0.2-0.2,0.4-0.3,0.4c-0.2,0.1-0.4,0.2-0.6,0.3c-0.1,0,0-0.1,0-0.3c0-0.2,0.1-0.4,0-0.3
						c-0.1,0-0.3,0.3-0.4,0.5c-0.2,0.2-0.3,0.5-0.4,0.5c-0.4,0.2-0.6,0.3-0.6,0.3c0,0,0-0.2,0.1-0.6c0-0.1,0.2-0.3,0.5-0.5
						c0.2-0.2,0.5-0.4,0.5-0.4c0,0-0.2,0-0.4,0.1c-0.2,0.1-0.4,0.2-0.4,0.2c0.1-0.3,0.3-0.6,0.5-0.9c0-0.1,0.4-0.2,0.8-0.3
						c0.4-0.1,0.7-0.2,0.8-0.2c0.1,0-0.2-0.1-0.5-0.1c-0.3,0-0.6,0-0.5-0.1c0.1-0.1,0.2-0.2,0.3-0.3c0.1,0,0.5-0.2,1-0.2
						c0.4,0,0.8,0,0.8-0.1c-0.2-0.2-0.5-0.2-0.7-0.2c-0.3,0-0.5,0-0.4,0c0.5-0.3,1.1-0.6,1.8-0.8c0.1,0,0.4,0.1,0.7,0.2
						C102.7,39.2,103,39.3,103.1,39.3z"/>
				</g>
			</g>
			<g>
				<g>
					<path class="st144" d="M103.6,39.2c0,0-0.1-0.1-0.3-0.1c-0.2-0.1-0.4-0.1-0.3-0.1c0.2-0.2,0.4-0.4,0.7-0.6
						c0.2-0.2,0.5-0.3,0.8-0.5c0.2-0.1,0.4-0.1,0.7-0.1c0.3,0,0.5,0.1,0.7,0.1c0.2,0.1,0.4,0.2,0.5,0.2c0.1,0.1,0.2,0.1,0.2,0.1
						c0-0.1-0.1-0.3-0.2-0.4c-0.1-0.1-0.2-0.2-0.3-0.2c-0.2-0.1-0.4-0.1-0.3-0.2c0.5-0.1,1,0,1.4,0.1c0.2,0.1,0.4,0.1,0.6,0.2
						c0.2,0.1,0.4,0.2,0.5,0.3c0.1,0.1,0.3,0.3,0.4,0.6c0.1,0.3,0.2,0.5,0.3,0.6c0.1,0.1,0.1,0,0.1-0.2c0-0.1,0-0.3,0.1-0.2
						c0.4,0.5,0.5,1,0.6,1.4c0.1,0.4,0.1,0.7,0,1c0,0.3-0.1,0.4-0.2,0.5c0,0.1-0.1,0.2-0.1,0.2c0,0,0-0.1-0.1-0.3
						c-0.1-0.2-0.2-0.4-0.4-0.7c-0.2-0.3-0.5-0.6-1-0.9c-0.2-0.1-0.5-0.3-0.7-0.3c-0.1,0-0.1,0-0.2,0c-0.1,0-0.1,0-0.2,0
						c-0.2,0-0.3,0-0.5,0c0,0,0,0,0.1-0.1c0.1-0.1,0.2-0.2,0.3-0.2c0.1-0.1,0.3-0.1,0.4-0.2c0.1,0,0.2-0.1,0.1-0.1c0,0-0.1,0-0.1,0
						c-0.1,0-0.2,0-0.2,0c-0.2,0-0.4,0.1-0.6,0.2c-0.4,0.2-0.6,0.5-0.6,0.6c-0.1,0.1-0.3,0.2-0.4,0.3c-0.1,0,0-0.3,0.2-0.6
						c0.1-0.2,0.2-0.3,0.3-0.4c0.1-0.1,0.1-0.2,0.1-0.2c0,0-0.1,0.1-0.3,0.2c-0.1,0.1-0.3,0.3-0.4,0.5c-0.2,0.4-0.4,0.9-0.4,0.9
						c0,0-0.1,0.1-0.1,0.1c-0.2,0.2-0.4,0.4-0.6,0.7c-0.1,0.1-0.1-0.2-0.1-0.6c0-0.3,0.1-0.7,0-0.6c0,0-0.1,0.2-0.2,0.3
						c-0.1,0.2-0.1,0.4-0.2,0.7c-0.1,0.5-0.2,1-0.2,1l-0.8,1.1c-0.1,0.1-0.1-0.1-0.1-0.3c0-0.2-0.1-0.3-0.1-0.3
						c0,0.1-0.1,0.4-0.1,0.6c0,0.3-0.1,0.6-0.1,0.6c-0.2,0.2-0.3,0.5-0.5,0.7c-0.1,0.1-0.1-0.8-0.2-0.7c-0.1,0.1-0.2,0.4-0.3,0.8
						c-0.1,0.3-0.2,0.7-0.2,0.7c-0.3,0.3-0.5,0.5-0.5,0.5c0,0,0-0.2,0-0.7c0-0.1,0.2-0.4,0.4-0.7c0.2-0.3,0.4-0.6,0.4-0.7
						c0,0-0.2,0.1-0.4,0.3c-0.2,0.2-0.4,0.4-0.4,0.3c0-0.3,0.1-0.7,0.2-1.1c0-0.1,0.3-0.4,0.6-0.7c0.3-0.3,0.6-0.6,0.6-0.7
						c0-0.1-0.2,0.1-0.5,0.2c-0.3,0.2-0.5,0.3-0.5,0.2c0-0.1,0.1-0.2,0.1-0.4c0-0.1,0.4-0.4,0.8-0.7c0.4-0.3,0.7-0.6,0.7-0.6
						c-0.2,0-0.5,0.1-0.8,0.3c-0.2,0.2-0.4,0.3-0.4,0.2c0.2-0.6,0.6-1.2,1-1.8c0.1-0.1,0.4-0.2,0.7-0.3
						C103.2,39.3,103.5,39.2,103.6,39.2z"/>
				</g>
			</g>
			<g>
				<g>
					<path class="st144" d="M104.9,46c0,0-0.2-0.1-0.3-0.1c-0.2,0-0.3,0-0.3-0.1c0.2-0.3,0.4-0.7,0.7-1c0.2-0.2,0.6-0.3,0.9-0.3
						c0.3-0.1,0.6-0.1,0.6-0.1c-0.2-0.2-0.5-0.2-0.7-0.2c-0.2,0-0.3,0.1-0.3,0c0.4-0.4,0.8-0.7,1.2-0.9c0.1,0,0.3,0,0.5-0.1
						c0.2,0,0.4,0,0.5,0c0.1,0,0-0.1-0.1-0.1c-0.1-0.1-0.2-0.1-0.2-0.1c0.7-0.3,1.3-0.4,1.6-0.5c0.4,0,0.6,0,0.6,0
						c0,0,0,0.1-0.1,0.2c-0.1,0.1-0.2,0.3-0.4,0.6c-0.2,0.2-0.4,0.6-0.7,0.9c-0.3,0.4-0.6,0.8-1,1.3c0,0.1,0-0.2,0-0.5
						c0-0.3,0-0.6,0-0.5c0,0.1-0.2,0.5-0.2,0.9c-0.1,0.4-0.1,0.8-0.1,0.8c-0.1,0.1-0.2,0.3-0.3,0.4c0,0.1-0.1-0.2-0.1-0.6
						c0-0.3,0-0.6-0.1-0.6c0,0-0.1,0.5-0.1,0.9c0,0.4,0,0.8,0,0.8l-0.1,0.1c-0.1,0.2-0.2,0.4-0.3,0.5c0,0.1-0.1-0.2-0.2-0.4
						c-0.1-0.3-0.2-0.5-0.2-0.5c0,0,0,0.4,0,0.8c0,0.4,0.1,0.7,0.1,0.7c-0.1,0.3-0.2,0.5-0.3,0.8c0,0.1-0.1,0-0.2-0.1
						c-0.1-0.1-0.2-0.2-0.2-0.1c0,0,0,0.2,0.1,0.4c0.1,0.2,0.2,0.3,0.2,0.4c0,0.2-0.1,0.4-0.1,0.5c0,0.1-0.1,0-0.3-0.1
						c-0.1-0.1-0.2-0.2-0.3-0.2c0,0.1,0.1,0.3,0.2,0.5c0.1,0.2,0.2,0.4,0.2,0.5c0,0.3,0,0.5,0,0.5c0,0-0.2-0.1-0.5-0.3
						c0,0-0.1-0.3-0.1-0.6c0-0.3,0-0.5,0-0.6c0,0-0.1,0.2-0.1,0.4c0,0.2-0.1,0.4-0.1,0.4c-0.2-0.2-0.3-0.5-0.5-0.8
						c0-0.1,0.1-0.4,0.2-0.7c0.1-0.3,0.3-0.6,0.3-0.6c0-0.1-0.2,0.1-0.4,0.3c-0.2,0.2-0.4,0.4-0.4,0.3c0-0.1,0-0.2,0-0.3
						c0,0,0-0.1,0.1-0.3c0.1-0.1,0.2-0.3,0.3-0.5c0.2-0.3,0.5-0.6,0.4-0.6c-0.2,0-0.5,0.2-0.6,0.3c-0.2,0.2-0.3,0.3-0.3,0.2
						c0-0.5,0.2-1,0.4-1.6c0-0.1,0.3-0.2,0.5-0.3C104.6,46.2,104.9,46.1,104.9,46z"/>
				</g>
			</g>
		</g>
		<g>
			<g>
				<g>
					<path class="st144" d="M95.8,56.4c0-0.5,0-0.9-0.1-1.4l-0.1,0c0,0-0.1,0-0.1-0.1c-0.1-0.7-0.2-1.3-0.3-2c0-0.1,0-0.1,0-0.1
						l0.4-0.2c0,0,0.1,0,0.1,0.1c0.3,0.6,0.5,1.3,0.8,2c0,0.1,0,0.1,0,0.1l-0.1,0c0.1,0.5,0.3,0.9,0.4,1.4c0,0.1,0,0.1,0,0.1l-0.1,0
						c0.1,0.5,0.2,0.9,0.3,1.4c0,0.1,0,0.1,0,0.1L97,58c0.1,0.5,0.2,0.9,0.2,1.4c0,0.1,0,0.1,0,0.1l-0.1,0c0.1,0.5,0.1,1,0.2,1.4
						c0,0.1,0,0.1-0.1,0.1l-0.1,0c0.1,0.5,0.1,1,0.1,1.4c0,0.1,0,0.1-0.1,0.1l-0.1,0c0,0.5,0.1,1,0.1,1.4c0,0.1,0,0.1-0.1,0.1
						l-0.1,0l0.1,1.4c0,0.1,0,0.1-0.1,0.1l-0.1,0l0.1,1.4c0,0.1,0,0.1-0.1,0.1l-0.1,0l0.1,1.4c0,0.1,0,0.1-0.1,0.1l-0.1,0l0.1,1.4
						c0,0.1,0,0.1-0.1,0.1l-0.1,0c0,0.5,0,1,0.1,1.4c0,0.1,0,0.1-0.1,0.1l-0.1,0c0,0.5,0.1,0.9,0.1,1.4c0,0.1,0,0.1-0.1,0.1L94.4,73
						c-0.1,0-0.1-0.1-0.1-0.1c0.1-0.5,0.3-0.9,0.4-1.4l-0.1,0c-0.1,0-0.1-0.1-0.1-0.1c0.2-0.5,0.3-0.9,0.4-1.4l-0.1,0
						c-0.1,0-0.1-0.1-0.1-0.1c0.1-0.5,0.3-0.9,0.4-1.4l-0.1,0c0,0-0.1-0.1-0.1-0.1c0.1-0.5,0.3-0.9,0.4-1.4l-0.1,0
						c0,0-0.1-0.1-0.1-0.1c0.1-0.5,0.3-0.9,0.4-1.4l-0.1,0c0,0-0.1-0.1-0.1-0.1c0.1-0.5,0.2-0.9,0.3-1.4l-0.1,0c0,0-0.1-0.1-0.1-0.1
						c0.1-0.5,0.2-0.9,0.3-1.4l-0.1,0c0,0-0.1-0.1-0.1-0.1c0.1-0.5,0.2-0.9,0.3-1.4l-0.1,0c0,0-0.1,0-0.1-0.1
						c0.1-0.5,0.1-0.9,0.2-1.4l-0.1,0c0,0-0.1,0-0.1-0.1C96,59,96,58.5,96.1,58L96,58c0,0-0.1,0-0.1-0.1c0-0.5,0-0.9,0-1.4l-0.1,0
						C95.9,56.5,95.8,56.5,95.8,56.4z"/>
				</g>
			</g>
			<g>
				<g>
					<path class="st144" d="M92,50.8c0,0-0.1,0.1-0.1,0.2c-0.1,0.1-0.1,0.2-0.1,0.2c0.2,0,0.4,0.1,0.7,0.2c0.1,0,0.4,0,0.7-0.1
						c0.2-0.1,0.5-0.1,0.4-0.1c-0.1,0.2-0.3,0.2-0.4,0.3c-0.1,0-0.2,0.1-0.2,0.1c0.3,0.1,0.7,0.3,0.9,0.4c0,0,0.2,0,0.4,0
						c0.2,0,0.3,0,0.4,0c0,0,0,0.1-0.1,0.1c-0.1,0-0.2,0.1-0.1,0.1c0.5,0.3,0.9,0.5,1.1,0.6c0.3,0.1,0.4,0.2,0.4,0.2
						c0,0,0-0.1,0-0.2c0-0.1-0.1-0.3-0.2-0.6c-0.1-0.3-0.3-0.6-0.5-0.9c-0.3-0.4-0.6-0.8-1.1-1.2c-0.1,0,0.1,0.2,0.1,0.5
						c0.1,0.2,0.1,0.5,0.1,0.4c0,0-0.2-0.4-0.4-0.7c-0.1-0.2-0.2-0.3-0.3-0.4c-0.1-0.1-0.2-0.2-0.2-0.2c-0.2-0.1-0.3-0.2-0.5-0.2
						c-0.1,0,0.1,0.2,0.3,0.5c0.2,0.2,0.3,0.5,0.2,0.5c0,0-0.3-0.3-0.5-0.6c-0.1-0.1-0.3-0.3-0.4-0.4c-0.1-0.1-0.2-0.2-0.2-0.2
						c-0.1,0-0.1,0-0.2,0c-0.3-0.1-0.5-0.1-0.8-0.1c-0.1,0,0.1,0.2,0.3,0.3c0.2,0.2,0.4,0.4,0.3,0.3c-0.1,0-0.4-0.2-0.7-0.3
						c-0.2-0.1-0.4-0.1-0.5-0.2c-0.1,0-0.3-0.1-0.3,0c-0.4,0.1-0.7,0.2-1,0.4c-0.1,0,0.1,0.1,0.2,0.1c0.1,0,0.2,0.1,0.2,0.1
						c0,0-0.3,0-0.5,0.1c-0.2,0-0.4,0.1-0.5,0.1c-0.2,0.1-0.3,0.3-0.4,0.4c0,0,0.1,0,0.3,0c0.1,0,0.3,0,0.3,0c0,0.1-0.2,0.1-0.4,0.3
						c-0.2,0.1-0.4,0.2-0.4,0.3C88,51.4,88,51.6,88,51.6c0,0,0.2,0,0.4-0.1c0,0,0.2-0.2,0.3-0.3c0.1-0.2,0.3-0.3,0.3-0.3
						c0,0-0.1,0.1-0.1,0.3c-0.1,0.1-0.1,0.3-0.1,0.3c0.2-0.1,0.4-0.1,0.6-0.2c0,0,0.2-0.2,0.3-0.4c0.1-0.2,0.3-0.4,0.4-0.4
						c0,0-0.1,0.2-0.1,0.3c-0.1,0.2-0.1,0.3-0.1,0.3c0.1,0,0.1,0,0.2,0c0,0,0.2-0.2,0.4-0.4c0.2-0.2,0.4-0.3,0.4-0.3
						c-0.1,0.2-0.2,0.3-0.3,0.4c-0.1,0.1-0.2,0.2-0.1,0.2c0.3,0,0.6,0,0.9,0c0.1,0,0.2-0.1,0.3-0.2C91.7,50.8,91.9,50.7,92,50.8z"/>
				</g>
			</g>
			<g>
				<g>
					<path class="st144" d="M92.4,52.2c0,0,0,0.1,0.1,0.2c0,0.1,0.1,0.2,0.1,0.2c0.1-0.1,0.2-0.1,0.4-0.2c0,0,0.1-0.1,0.1-0.2
						c0-0.1,0.1-0.2,0.2-0.2c0,0,0,0,0.1-0.1l0,0l0,0c0,0,0,0,0.1,0c0,0,0,0,0,0c0.1,0,0.1-0.1,0.1-0.1c0,0.1-0.1,0.2-0.1,0.3l0,0.1
						c0,0,0,0,0,0c0,0-0.1,0.1-0.1,0.1c-0.1,0.1-0.1,0.1-0.1,0.1l0,0c0,0,0,0,0,0l0,0c0,0,0,0,0,0l0,0c0.1,0,0.1,0,0.2,0
						c0.1,0,0.3,0,0.4,0c0,0,0.2-0.1,0.3-0.1c0.1-0.1,0.3-0.1,0.3-0.1c0,0,0,0.1-0.1,0.1c-0.1,0.1-0.1,0.1-0.1,0.1
						c0.4,0,0.8,0.1,0.9,0.2c0.1,0,0.2,0.1,0.2,0.1c0,0,0.1,0.1,0.1,0.1c0,0,0-0.1,0.1-0.2c0-0.1,0-0.1,0-0.2c0-0.1-0.1-0.2-0.1-0.3
						c-0.1-0.2-0.4-0.5-0.7-0.8c-0.2-0.1-0.4-0.2-0.6-0.3c-0.1-0.1-0.2-0.1-0.3-0.2c-0.1,0-0.3-0.1-0.4-0.1c0,0,0,0,0.1,0.1
						c0.1,0.1,0.1,0.2,0.2,0.3c0.1,0.2,0.3,0.4,0.2,0.4c-0.1,0-0.3-0.3-0.6-0.5c0,0,0,0,0,0c0,0,0,0,0,0c0,0-0.1,0-0.1-0.1
						c-0.1,0-0.2-0.1-0.2-0.1c-0.1-0.1-0.3-0.1-0.3-0.1c-0.2,0-0.4,0-0.6,0.1c-0.1,0,0.2,0.1,0.5,0.2c0.3,0.1,0.5,0.3,0.4,0.3
						c0,0-0.1,0-0.2-0.1c-0.1,0-0.3-0.1-0.5-0.1c-0.2,0-0.4,0-0.6,0c-0.2,0-0.3,0-0.3,0c0,0-0.1,0.1-0.1,0.1
						c-0.2,0.1-0.4,0.3-0.5,0.5c0,0.1,0.2,0,0.4,0c0.2,0,0.5,0,0.4,0.1c0,0-0.1,0-0.2,0.1c-0.1,0-0.3,0.1-0.4,0.1
						c-0.3,0.1-0.6,0.3-0.6,0.3c-0.2,0.3-0.3,0.5-0.3,0.8c0,0.1,0.1,0,0.2,0c0.1,0,0.2,0,0.2,0c0,0-0.2,0.1-0.3,0.3
						c-0.1,0.1-0.3,0.2-0.3,0.3c0,0.2,0,0.3,0,0.5c0,0,0.1,0,0.2-0.1c0.1-0.1,0.2-0.1,0.2-0.1c0,0.1-0.1,0.2-0.2,0.4
						c-0.1,0.2-0.2,0.3-0.2,0.4c0,0.3,0.1,0.4,0.1,0.4c0,0,0.1-0.1,0.3-0.2c0,0,0-0.2,0.1-0.4c0-0.2,0.1-0.4,0.1-0.4
						c0,0,0,0.1,0,0.3c0,0.1,0,0.3,0.1,0.3c0.1-0.1,0.3-0.2,0.4-0.4c0,0,0-0.2,0-0.5c0-0.2,0-0.4,0-0.5c0,0,0.1,0.2,0.1,0.3
						c0.1,0.2,0.1,0.3,0.1,0.3l0.1-0.1c0,0,0-0.3,0-0.5c0-0.2,0.1-0.5,0.1-0.4c0.1,0.1,0.1,0.3,0.1,0.5c0,0.1,0,0.2,0,0.2
						c0.2-0.2,0.4-0.4,0.6-0.5c0,0,0-0.2,0-0.3C92.4,52.4,92.4,52.2,92.4,52.2z"/>
				</g>
			</g>
			<g>
				<g>
					<path class="st144" d="M92.6,56.1c0,0,0.1,0.1,0.2,0.2c0.1,0.1,0.2,0.2,0.2,0.2c0.1-0.2,0.2-0.5,0.3-0.7c0,0,0-0.1,0-0.1
						c0,0,0-0.1,0-0.1c0,0,0-0.1,0-0.1l0-0.1c0,0,0,0,0,0l0-0.1c0-0.1,0-0.1,0-0.2c-0.1-0.2-0.1-0.5,0-0.4c0.1,0.1,0.2,0.3,0.2,0.5
						c0,0.1,0.1,0.2,0.1,0.2c0.1-0.3,0.3-0.6,0.5-0.8c0,0,0-0.2,0.1-0.4c0-0.2,0.1-0.3,0.1-0.4c0,0,0.1,0.1,0.1,0.1
						c0,0.1,0,0.2,0.1,0.1l0.5-0.6c0.1-0.2,0.2-0.3,0.3-0.4c0.2-0.2,0.2-0.4,0.2-0.4c0,0-0.3,0-0.8,0.1c-0.3,0.1-0.6,0.2-1,0.3
						c-0.2,0.1-0.4,0.2-0.7,0.4c-0.2,0.2-0.5,0.4-0.7,0.6c0,0.1,0.2,0,0.5-0.1c0.3-0.1,0.5-0.1,0.5,0c0,0-0.4,0.2-0.7,0.3
						c-0.2,0.1-0.3,0.2-0.5,0.3l0,0c0,0,0,0,0,0c0,0,0,0-0.1,0l0,0l0,0l0,0c0,0,0,0,0,0c-0.1,0.2-0.2,0.3-0.3,0.5
						c0,0.1,0.2-0.1,0.5-0.2l0.1,0l0,0l0,0l0,0c0,0,0.1,0,0.1,0l0,0c0,0,0,0,0,0c0.1,0,0.1-0.1,0.1,0c0,0,0,0-0.1,0.1l0,0l0,0
						c0,0,0,0-0.1,0c-0.1,0.1-0.3,0.2-0.4,0.3c-0.3,0.2-0.6,0.5-0.6,0.5l-0.1,0.1c-0.1,0.2-0.2,0.4-0.2,0.6c0,0.1,0.2-0.1,0.4-0.2
						c0.2-0.1,0.4-0.2,0.4-0.2c0,0.1-0.3,0.3-0.5,0.5c-0.2,0.3-0.5,0.5-0.5,0.6c-0.1,0.3-0.1,0.6-0.1,0.9c0,0.1,0.1,0,0.2-0.1
						c0.1-0.1,0.2-0.1,0.2-0.1c0,0-0.1,0.2-0.2,0.4c-0.1,0.2-0.2,0.4-0.2,0.4c0,0.2,0.1,0.4,0.1,0.5c0,0.1,0.1-0.1,0.2-0.2
						c0.1-0.1,0.2-0.2,0.2-0.2c0,0.1,0,0.3-0.1,0.5c0,0.2-0.1,0.4,0,0.5c0.2,0.3,0.3,0.4,0.3,0.4c0,0,0.1-0.1,0.2-0.4
						c0,0,0-0.2-0.1-0.4c0-0.2-0.1-0.4,0-0.5c0,0,0.1,0.1,0.1,0.3c0.1,0.1,0.1,0.3,0.1,0.3L92,59c0,0-0.1-0.3-0.1-0.5
						c-0.1-0.2-0.1-0.5-0.1-0.5c0,0,0.1,0.1,0.2,0.3c0.1,0.2,0.2,0.3,0.2,0.3l0.1-0.2c0,0-0.1-0.3-0.1-0.6c-0.1-0.3-0.1-0.5-0.1-0.5
						c0.1,0.1,0.2,0.3,0.3,0.5c0.1,0.2,0.1,0.3,0.1,0.2c0.1-0.3,0.3-0.6,0.4-1c0-0.1,0-0.2-0.1-0.4C92.7,56.3,92.6,56.2,92.6,56.1z"
						/>
				</g>
			</g>
			<g>
				<g>
					<path class="st144" d="M99.7,53.2c0,0,0.1-0.1,0.2-0.1c0.1-0.1,0.3-0.1,0.2-0.1c-0.2-0.2-0.4-0.4-0.7-0.6
						c-0.1,0-0.2-0.1-0.3-0.1c-0.1,0-0.3,0-0.4,0c-0.3,0.1-0.4,0.1-0.4,0.1c0.1-0.2,0.3-0.3,0.4-0.3c0.1,0,0.2,0,0.2-0.1
						c-0.2-0.1-0.4-0.2-0.6-0.2c-0.1,0-0.2,0-0.3,0l0,0l0,0c0,0,0,0,0,0c0,0,0,0,0,0c0,0,0,0,0,0c-0.1,0-0.1,0-0.2,0
						c-0.1,0-0.2,0.1-0.4,0.2c-0.1,0.1-0.3,0.2-0.3,0.2c0,0,0-0.1,0-0.2c0-0.1,0.1-0.2,0-0.2c-0.3,0.1-0.5,0.1-0.7,0.3
						c-0.1,0.1-0.2,0.1-0.3,0.2c-0.1,0.1-0.1,0.1-0.2,0.2C96,52.5,96,52.7,96,52.7c0,0.1,0,0.1,0,0.1c0,0,0,0,0.1,0c0,0,0.1,0,0.2,0
						c0.1,0,0.1,0,0.2,0c0.2,0,0.4,0.1,0.7,0.2c0.1,0,0.1,0.1,0.2,0.1c0.1,0,0.1,0.1,0.2,0.1c0,0,0,0,0.1,0l0,0c0,0,0,0,0,0l0,0l0,0
						c0,0,0.1,0,0.1,0.1c0.1,0,0.1,0.1,0.2,0.1c0,0,0-0.2-0.1-0.4c-0.1-0.2-0.2-0.4-0.1-0.4c0,0,0.1,0.1,0.1,0.2
						c0.1,0.1,0.1,0.2,0.2,0.3c0.1,0.2,0.2,0.5,0.2,0.5c0.1,0.1,0.1,0.1,0.2,0.2c0,0,0-0.2,0-0.4c0-0.2-0.1-0.4,0-0.4
						c0,0,0,0.1,0.1,0.2c0,0.1,0.1,0.2,0.1,0.4c0.1,0.3,0.1,0.5,0.1,0.5l0.1,0.1c0.1,0.1,0.2,0.2,0.3,0.3c0,0,0.1-0.1,0.1-0.3
						c0-0.2,0.1-0.4,0.1-0.4c0,0,0.1,0.3,0.1,0.5c0,0.3,0,0.5,0,0.5c0.1,0.2,0.3,0.3,0.4,0.5c0,0,0.1-0.1,0.1-0.2
						c0-0.1,0.1-0.2,0.1-0.2c0,0,0,0.2,0,0.3c0,0.2,0,0.3,0,0.3c0.1,0.1,0.2,0.2,0.3,0.3c0.1,0.1,0.1-0.5,0.2-0.4
						c0.1,0.1,0.1,0.7,0.2,0.7c0.2,0.1,0.3,0.2,0.3,0.2c0,0,0-0.1,0.1-0.4c0-0.1-0.4-0.6-0.4-0.6c0-0.1,0.5,0.3,0.5,0.3
						c0-0.2,0-0.4,0-0.6c0,0-0.2-0.2-0.4-0.3c-0.2-0.1-0.4-0.3-0.4-0.3c0,0,0.2,0,0.3,0.1c0.2,0.1,0.3,0.1,0.3,0.1
						c0-0.1,0-0.1,0-0.2c0,0-0.2-0.2-0.5-0.3c-0.2-0.1-0.4-0.2-0.4-0.3c0.2,0,0.4,0,0.5,0.1c0.1,0.1,0.2,0.1,0.2,0.1
						c-0.1-0.3-0.3-0.6-0.5-0.9c0-0.1-0.2-0.1-0.4-0.1C100,53.2,99.8,53.2,99.7,53.2z"/>
				</g>
			</g>
			<g>
				<g>
					<path class="st144" d="M100.9,50.6c0,0,0-0.1,0.1-0.2c0.1-0.1,0.2-0.2,0.1-0.2c-0.4-0.1-0.8-0.1-1.2-0.1
						c-0.1,0-0.3,0.1-0.4,0.2c-0.1,0.1-0.3,0.2-0.4,0.3c-0.1,0.1-0.2,0.2-0.3,0.3c0,0,0,0-0.1,0l0,0c0,0,0,0,0,0
						c0-0.1,0-0.2,0.1-0.3c0-0.1,0.1-0.2,0.2-0.2c0.1-0.1,0.2-0.2,0.1-0.2c-0.1,0-0.1,0-0.2,0.1l-0.1,0l0,0l0,0l0,0l0,0l0,0l0,0
						l-0.1,0c-0.1,0-0.1,0-0.2,0.1c-0.2,0.1-0.4,0.2-0.6,0.3c0,0-0.2,0.2-0.3,0.4c-0.1,0.2-0.2,0.3-0.2,0.4c-0.1,0-0.1-0.1-0.1-0.2
						c0-0.1,0-0.2,0-0.2c-0.3,0.2-0.5,0.5-0.7,0.7c-0.2,0.2-0.3,0.5-0.3,0.6c0,0.2,0,0.3,0,0.4c0,0.1,0,0.1,0,0.1c0,0,0-0.1,0.1-0.2
						c0.1-0.1,0.2-0.2,0.5-0.3c0.2-0.1,0.5-0.2,0.9-0.3c0.2-0.1,0.4-0.1,0.7-0.2c0.1,0,0.2-0.1,0.4-0.1c0.1,0,0.1,0,0.2,0l0.1,0l0,0
						c0,0,0,0,0,0c0,0,0,0,0,0l0,0c0,0,0,0,0,0c0,0,0,0,0,0c0,0,0,0,0,0c0,0,0,0,0,0c0,0,0,0,0,0c-0.1,0-0.2-0.1-0.3-0.1
						c-0.2-0.1-0.5-0.2-0.4-0.2c0,0,0.1,0,0.3,0c0.1,0,0.2,0,0.2,0c0,0,0.1,0,0.1,0l0,0c0,0,0,0,0,0c0,0,0,0,0,0l0,0
						c0.2,0,0.3,0.1,0.4,0.2c0.1,0,0.2,0.1,0.2,0.1c0.1,0,0.3,0,0.4,0c0.1,0-0.1-0.2-0.3-0.3c-0.2-0.2-0.5-0.3-0.4-0.3
						c0,0,0.1,0,0.2,0.1c0.1,0.1,0.3,0.1,0.4,0.2c0.2,0.1,0.3,0.2,0.4,0.3c0.1,0.1,0.2,0.1,0.2,0.1c0,0,0.1,0,0.1,0
						c0.2,0,0.4,0.1,0.5,0.1c0.1,0,0-0.2-0.1-0.4c-0.1-0.2-0.3-0.4-0.2-0.4c0,0,0.1,0.1,0.2,0.1c0.1,0.1,0.2,0.2,0.3,0.3
						c0.2,0.2,0.4,0.5,0.4,0.5c0.3,0.1,0.5,0.2,0.7,0.4c0,0,0.1-0.1,0-0.2c0-0.1,0-0.2,0-0.2c0,0,0.1,0.2,0.2,0.4
						c0.1,0.2,0.2,0.3,0.2,0.4c0.2,0.1,0.3,0.2,0.4,0.3c0,0,0-0.1,0-0.3c0-0.1,0-0.3,0-0.3c0.1,0,0.2,0.2,0.3,0.4
						c0.1,0.2,0.2,0.4,0.2,0.4c0.3,0.2,0.4,0.3,0.4,0.3c0,0,0-0.2,0-0.5c0,0-0.2-0.2-0.3-0.4c-0.2-0.2-0.4-0.3-0.4-0.4
						c0,0,0.2,0.1,0.3,0.1c0.2,0.1,0.3,0.2,0.3,0.2c-0.1-0.2-0.2-0.5-0.3-0.7c0,0-0.3-0.2-0.6-0.3c-0.3-0.1-0.6-0.2-0.6-0.2
						c0,0,0.2,0,0.4,0c0.2,0,0.4,0,0.4,0c-0.1-0.1-0.1-0.1-0.2-0.2c0,0-0.4-0.2-0.7-0.2c-0.3-0.1-0.7-0.1-0.6-0.1
						c0.1-0.1,0.4-0.1,0.6-0.1c0.2,0,0.4,0.1,0.3,0c-0.3-0.3-0.8-0.6-1.3-0.8c-0.1,0-0.3,0-0.5,0.1
						C101.1,50.5,100.9,50.6,100.9,50.6z"/>
				</g>
			</g>
			<g>
				<g>
					<path class="st144" d="M100.5,50.4c0,0,0.1-0.1,0.3-0.1c0.1,0,0.3,0,0.3-0.1c-0.1-0.2-0.3-0.3-0.5-0.5
						c-0.2-0.2-0.4-0.3-0.6-0.4c-0.1-0.1-0.3-0.1-0.5-0.1c-0.2,0-0.4,0-0.6,0c-0.2,0-0.3,0.1-0.4,0.1c-0.1,0-0.2,0.1-0.2,0.1
						c0-0.1,0.1-0.2,0.2-0.3c0.1-0.1,0.2-0.1,0.3-0.2c0.2-0.1,0.4-0.1,0.3-0.1c-0.4-0.1-0.7-0.1-1.1,0c-0.2,0-0.3,0.1-0.5,0.1
						c-0.2,0-0.3,0.1-0.4,0.2c-0.1,0-0.2,0.2-0.4,0.4c-0.1,0.2-0.2,0.4-0.3,0.5c-0.1,0.1-0.1,0-0.1-0.1c0-0.1,0-0.2-0.1-0.2
						c-0.3,0.3-0.5,0.7-0.6,1c-0.1,0.3-0.1,0.6-0.1,0.8c0,0.2,0,0.3,0.1,0.4c0,0.1,0.1,0.1,0.1,0.1c0,0,0-0.1,0.1-0.2
						c0.1-0.1,0.2-0.3,0.4-0.5c0.2-0.2,0.5-0.5,0.8-0.6c0.2-0.1,0.4-0.2,0.6-0.2c0.1,0,0.1,0,0.2,0c0,0,0.1,0,0.2,0
						c0.1,0,0.2,0,0.4,0c0,0,0,0,0-0.1c-0.1-0.1-0.1-0.1-0.2-0.2c-0.1-0.1-0.2-0.1-0.3-0.2c-0.1,0-0.1-0.1-0.1-0.1c0,0,0.1,0,0.1,0
						c0,0,0.1,0,0.2,0.1c0.1,0,0.3,0.1,0.4,0.2c0.3,0.2,0.4,0.5,0.5,0.5c0.1,0.1,0.2,0.2,0.3,0.3c0,0,0-0.2-0.1-0.5
						c0-0.1-0.1-0.2-0.2-0.3c0-0.1-0.1-0.1,0-0.1c0,0,0.1,0.1,0.2,0.2c0.1,0.1,0.2,0.3,0.3,0.4c0.2,0.3,0.2,0.7,0.2,0.7
						c0,0,0.1,0.1,0.1,0.1c0.1,0.2,0.3,0.4,0.4,0.6c0,0.1,0.1-0.2,0.1-0.4c0-0.3,0-0.5,0.1-0.5c0,0,0.1,0.1,0.1,0.3
						c0,0.1,0.1,0.3,0.1,0.5c0.1,0.4,0.1,0.8,0.1,0.8l0.5,0.9c0,0.1,0.1-0.1,0.1-0.2c0-0.1,0.1-0.3,0.1-0.2c0,0,0,0.3,0.1,0.5
						c0,0.2,0,0.5,0,0.5c0.1,0.2,0.2,0.4,0.3,0.5c0.1,0.1,0.1-0.6,0.2-0.6c0,0.1,0.1,0.3,0.1,0.6c0,0.3,0.1,0.5,0.1,0.6
						c0.2,0.3,0.4,0.4,0.4,0.4c0,0,0-0.2,0.1-0.5c0,0-0.1-0.3-0.2-0.5c-0.1-0.3-0.2-0.5-0.2-0.6c0,0,0.1,0.1,0.3,0.3
						c0.1,0.2,0.2,0.3,0.2,0.3c0-0.2,0-0.5,0-0.9c0-0.1-0.2-0.3-0.4-0.6c-0.2-0.3-0.4-0.5-0.4-0.6c0-0.1,0.2,0.1,0.4,0.2
						c0.2,0.1,0.4,0.3,0.4,0.2c0-0.1,0-0.2-0.1-0.3c0-0.1-0.3-0.4-0.5-0.6c-0.3-0.3-0.5-0.5-0.5-0.5c0.2,0,0.4,0.2,0.6,0.3
						c0.2,0.1,0.3,0.3,0.3,0.2c-0.1-0.5-0.3-1-0.6-1.5c0-0.1-0.3-0.2-0.5-0.3C100.8,50.6,100.6,50.5,100.5,50.4z"/>
				</g>
			</g>
			<g>
				<g>
					<path class="st144" d="M98.9,55.7c0,0,0.1,0,0.3,0c0.1,0,0.3,0,0.3,0c-0.1-0.3-0.3-0.6-0.5-0.8c-0.1-0.1-0.4-0.3-0.7-0.3
						c-0.3-0.1-0.5-0.1-0.4-0.1c0.2-0.1,0.4-0.1,0.5-0.1c0.1,0,0.2,0.1,0.2,0c-0.3-0.3-0.6-0.6-0.9-0.8c0,0-0.2-0.1-0.4-0.1
						c-0.2,0-0.3,0-0.4-0.1c0,0,0-0.1,0.1-0.1c0.1,0,0.2-0.1,0.1-0.1c-0.5-0.3-0.9-0.4-1.2-0.5c-0.3-0.1-0.4,0-0.4,0
						c0,0,0,0.1,0.1,0.2c0.1,0.1,0.1,0.3,0.3,0.5c0.1,0.2,0.3,0.5,0.5,0.8c0.2,0.3,0.4,0.7,0.6,1.1c0,0,0.1-0.2,0.1-0.4
						c0-0.2,0-0.5,0.1-0.4c0,0,0.1,0.4,0.1,0.7c0,0.3,0,0.6,0,0.7c0.1,0.1,0.1,0.2,0.2,0.3c0,0,0.1-0.2,0.1-0.4
						c0-0.2,0.1-0.5,0.1-0.5c0,0,0,0.4,0,0.7c0,0.3-0.1,0.6,0,0.6l0,0.1c0.1,0.2,0.1,0.3,0.2,0.5c0,0,0.1-0.1,0.2-0.3
						c0.1-0.2,0.2-0.4,0.2-0.3c0,0,0,0.3-0.1,0.6c-0.1,0.3-0.2,0.5-0.2,0.6c0.1,0.2,0.1,0.4,0.2,0.6c0,0,0.1,0,0.2-0.1
						c0.1-0.1,0.2-0.1,0.2-0.1c0,0-0.1,0.2-0.1,0.3c-0.1,0.1-0.2,0.3-0.2,0.3c0,0.1,0,0.3,0,0.4c0,0,0.1,0,0.2-0.1
						c0.1-0.1,0.2-0.2,0.2-0.1c0,0.1-0.1,0.2-0.2,0.4c-0.1,0.2-0.2,0.3-0.2,0.3c0,0.3,0,0.4,0,0.4c0,0,0.1,0,0.4-0.2
						c0,0,0.1-0.2,0.1-0.4c0-0.2,0.1-0.4,0.1-0.5c0,0,0.1,0.1,0.1,0.3c0,0.2,0,0.3,0,0.3c0.1-0.1,0.3-0.3,0.4-0.6c0,0,0-0.3-0.1-0.6
						c-0.1-0.3-0.2-0.5-0.2-0.5c0,0,0.2,0.1,0.3,0.3c0.1,0.2,0.2,0.3,0.3,0.3c0-0.1,0-0.2,0.1-0.3c0,0,0-0.1-0.1-0.2
						c-0.1-0.1-0.1-0.3-0.2-0.4c-0.2-0.3-0.3-0.5-0.3-0.5c0.2,0,0.3,0.2,0.5,0.3c0.1,0.1,0.2,0.3,0.2,0.2c0-0.4-0.1-0.8-0.2-1.3
						c0-0.1-0.2-0.2-0.4-0.3C99.1,55.8,98.9,55.7,98.9,55.7z"/>
				</g>
			</g>
		</g>
	</g>
	<g>
		<rect x="59.7" y="21.6" width="0.8" height="60.8"/>
	</g>
	<g>
		<rect x="130.9" y="21.6" width="0.8" height="60.8"/>
	</g>
	<g>
		<g>
			<path d="M150.7,35.4c0,2.6-1,4.6-3,5.9s-4.7,2-8,2c-0.4,0-0.8,0-1.1,0c0,2.5,0.1,5.5,0.3,9.1h-3.3c0.2-3.3,0.3-7.2,0.3-11.8
				c0-4-0.1-7.5-0.3-10.7h2.5c0.3,0,1,0,2.3-0.1c1.2,0,2.3-0.1,3.2-0.1c2.2,0,4,0.5,5.3,1.5C150,32.2,150.7,33.6,150.7,35.4z
				 M147.8,36.4c0-3-2-4.4-6.1-4.4c-1,0-2.1,0.1-3.3,0.3c0.1,1.9,0.1,4.8,0.1,8.8c0.4,0,0.9,0,1.5,0C145.2,41,147.8,39.5,147.8,36.4
				z"/>
			<path d="M172.7,52.3H169c0-0.8-0.7-3.2-2.2-7.3h-10c-1.4,4-2.1,6.4-2.1,7.3h-3.5c0-0.4,1.5-4.1,4.5-11c3-6.9,4.5-10.7,4.5-11.4h4
				c0,0.7,1.4,4.4,4.2,11.3S172.7,51.6,172.7,52.3z M166.1,42.7C163.4,36,162,32.4,162,32h-0.2c0,0.4-1.4,3.9-4.2,10.8H166.1z"/>
			<path d="M189.8,49.7l-0.1,2.5h-13.6c0.1-2.8,0.2-6.8,0.2-11.8c0-4.3-0.1-7.9-0.2-10.7h3.2c-0.1,2.3-0.2,5.9-0.2,10.7
				c0,3.9-0.1,7.1-0.2,9.5C182.4,49.9,186,49.9,189.8,49.7z"/>
			<path d="M217.5,52.3h-3.2c0-2.6-0.2-6.3-0.5-11.1c-0.4-4.9-0.5-7.8-0.6-8.7H213c-1.2,3.7-2.6,7.8-4.4,12.2
				c-1.8,4.4-2.6,6.9-2.6,7.7h-2.3c0-0.8-0.8-3.4-2.5-7.8c-1.6-4.4-2.7-7.4-3.1-8.9s-0.7-2.6-0.9-3.2h-0.2c0,1.6-0.3,4.8-0.7,9.5
				s-0.6,8.2-0.6,10.3h-3c0-0.1,0.4-3.3,1.2-9.5c0.8-6.2,1.2-10.5,1.2-13h4.5c0,1.3,0.9,4.4,2.8,9.5c1.8,5.1,2.8,8.1,2.8,9.2h0.2
				c0-1.1,1-4.1,3.1-9.2s3.1-8.2,3.1-9.5h4.4c0,2.4,0.3,6.7,0.8,12.9C217.2,48.9,217.5,52.1,217.5,52.3z"/>
			<path d="M249.6,52.3h-3.6c0-0.8-0.7-3.2-2.2-7.3h-10c-1.4,4-2.1,6.4-2.1,7.3h-3.5c0-0.4,1.5-4.1,4.5-11c3-6.9,4.5-10.7,4.5-11.4
				h4c0,0.7,1.4,4.4,4.2,11.3C248.2,47.9,249.6,51.6,249.6,52.3z M243,42.7c-2.7-6.8-4.1-10.3-4.1-10.8h-0.2c0,0.4-1.4,3.9-4.2,10.8
				H243z"/>
			<path d="M277.1,52.3h-3.2c0-2.6-0.2-6.3-0.5-11.1c-0.4-4.9-0.5-7.8-0.6-8.7h-0.2c-1.2,3.7-2.6,7.8-4.4,12.2
				c-1.8,4.4-2.6,6.9-2.6,7.7h-2.3c0-0.8-0.8-3.4-2.5-7.8c-1.6-4.4-2.7-7.4-3.1-8.9s-0.7-2.6-0.9-3.2h-0.2c0,1.6-0.3,4.8-0.7,9.5
				c-0.4,4.8-0.6,8.2-0.6,10.3h-3c0-0.1,0.4-3.3,1.2-9.5c0.8-6.2,1.2-10.5,1.2-13h4.5c0,1.3,0.9,4.4,2.8,9.5
				c1.8,5.1,2.8,8.1,2.8,9.2h0.2c0-1.1,1-4.1,3.1-9.2s3.1-8.2,3.1-9.5h4.4c0,2.4,0.3,6.7,0.8,12.9C276.8,48.9,277.1,52.1,277.1,52.3
				z"/>
			<path d="M302.7,40.7c0,3.7-1.1,6.7-3.3,8.9c-2.2,2.2-4.7,3.3-7.5,3.3c-2.7,0-5.1-1-7.2-3.1c-2.1-2-3.1-4.8-3.1-8.3
				c0-3.8,1.1-6.7,3.3-8.9c2.2-2.2,4.7-3.3,7.5-3.3c2.7,0,5.1,1,7.2,3.1S302.7,37.2,302.7,40.7z M299.7,41.1c0-3-0.8-5.3-2.3-6.9
				c-1.6-1.6-3.4-2.4-5.4-2.4c-1.9,0-3.6,0.9-5,2.6c-1.5,1.7-2.2,4-2.2,6.9c0,3,0.8,5.3,2.4,6.9c1.6,1.6,3.4,2.4,5.4,2.4
				c1.9,0,3.6-0.9,5-2.6C298.9,46.2,299.7,43.9,299.7,41.1z"/>
			<path d="M324.7,52.3h-3.3c-1.1-3.3-1.9-5.5-2.4-6.6c-0.6-1.3-1.4-2.2-2.2-2.6c-0.6-0.3-1.8-0.5-3.5-0.5c-1,0-1.8,0-2.6,0
				c0,3.7,0.1,6.9,0.2,9.6h-3.2c0.2-3.6,0.3-7.5,0.3-11.8c0-4-0.1-7.6-0.3-10.7h2.4c0.5,0,1.2,0,2-0.1c0.8,0,1.7-0.1,2.7-0.1
				c5,0,7.6,1.7,7.6,5.2c0,2.9-1.4,4.9-4.2,6.1v0.2c1.3,0.4,2.3,1.3,3.1,2.6C321.9,45,323,47.8,324.7,52.3z M319.4,36.1
				c0-2.7-1.9-4.1-5.6-4.1c-1.3,0-2.4,0.1-3.3,0.2c0.1,2,0.1,4.7,0.1,8.2c0.7,0,1.4,0,2,0C317.2,40.4,319.4,39,319.4,36.1z"/>
			<path d="M343.1,49.7l-0.1,2.6h-13.9c0.2-3.6,0.2-7.5,0.2-11.8c0-4-0.1-7.6-0.2-10.7h13l-0.1,2.6c-3.2-0.1-6.5-0.2-10.1-0.2
				c0.1,1.8,0.1,4.2,0.1,7.2c3.1,0,5.8-0.1,8.2-0.2v2.6c-2.6-0.1-5.3-0.2-8.2-0.2c0,3,0.1,5.7,0.2,8.3
				C336,49.9,339.7,49.8,343.1,49.7z"/>
		</g>
		<g>
			<path d="M134.8,75.7v-11h4.1c0.7,0,1.3,0,1.7,0.1c0.5,0.1,1,0.3,1.4,0.5c0.4,0.3,0.7,0.6,0.9,1.1c0.2,0.5,0.3,1,0.3,1.5
				c0,0.9-0.3,1.7-0.9,2.4s-1.7,1-3.2,1h-2.8v4.5H134.8z M136.2,69.9h2.8c0.9,0,1.6-0.2,2-0.5s0.6-0.8,0.6-1.5
				c0-0.5-0.1-0.9-0.3-1.2c-0.2-0.3-0.5-0.5-0.9-0.6c-0.2-0.1-0.7-0.1-1.4-0.1h-2.8V69.9z"/>
			<path d="M147.3,75.7l4.2-11h1.6l4.5,11h-1.7l-1.3-3.3H150l-1.2,3.3H147.3z M150.4,71.2h3.7l-1.1-3c-0.4-0.9-0.6-1.7-0.8-2.3
				c-0.1,0.7-0.3,1.4-0.6,2.1L150.4,71.2z"/>
			<path d="M163.3,75.7v-11h1.5v9.7h5.4v1.3H163.3z"/>
			<path d="M176.4,75.7v-11h2.2l2.6,7.8c0.2,0.7,0.4,1.3,0.5,1.6c0.1-0.4,0.3-1,0.6-1.8l2.6-7.7h2v11h-1.4v-9.2l-3.2,9.2H181
				l-3.2-9.4v9.4H176.4z"/>
			<path d="M202.7,75.7v-11h4.1c0.8,0,1.5,0.1,2,0.3c0.5,0.2,0.9,0.6,1.2,1c0.3,0.5,0.4,0.9,0.4,1.5c0,0.5-0.1,0.9-0.4,1.3
				s-0.6,0.8-1.2,1c0.7,0.2,1.2,0.5,1.5,1c0.4,0.5,0.5,1,0.5,1.7c0,0.5-0.1,1-0.3,1.4c-0.2,0.4-0.5,0.8-0.8,1
				c-0.3,0.2-0.7,0.4-1.2,0.5c-0.5,0.1-1.1,0.2-1.8,0.2H202.7z M204.2,69.3h2.4c0.6,0,1.1,0,1.4-0.1c0.4-0.1,0.6-0.3,0.8-0.5
				c0.2-0.3,0.3-0.6,0.3-1c0-0.4-0.1-0.7-0.3-1c-0.2-0.3-0.4-0.5-0.8-0.6s-0.9-0.2-1.7-0.2h-2.2V69.3z M204.2,74.4h2.7
				c0.5,0,0.8,0,1-0.1c0.3-0.1,0.6-0.2,0.8-0.3c0.2-0.1,0.4-0.3,0.6-0.6c0.1-0.3,0.2-0.6,0.2-0.9c0-0.4-0.1-0.8-0.3-1.1
				c-0.2-0.3-0.5-0.5-0.9-0.6c-0.4-0.1-0.9-0.2-1.6-0.2h-2.5V74.4z"/>
			<path d="M217.7,75.7v-11h8V66h-6.5v3.4h6.1v1.3h-6.1v3.7h6.8v1.3H217.7z"/>
			<path d="M231.3,75.7l4.2-11h1.6l4.5,11h-1.7l-1.3-3.3H234l-1.2,3.3H231.3z M234.5,71.2h3.7l-1.1-3c-0.4-0.9-0.6-1.7-0.8-2.3
				c-0.1,0.7-0.3,1.4-0.6,2.1L234.5,71.2z"/>
			<path d="M255.2,71.8l1.5,0.4c-0.3,1.2-0.9,2.1-1.6,2.7c-0.8,0.6-1.8,0.9-2.9,0.9c-1.2,0-2.1-0.2-2.9-0.7
				c-0.7-0.5-1.3-1.2-1.7-2.1c-0.4-0.9-0.6-1.9-0.6-2.9c0-1.1,0.2-2.1,0.7-3c0.4-0.9,1.1-1.5,1.9-1.9c0.8-0.4,1.7-0.7,2.7-0.7
				c1.1,0,2,0.3,2.8,0.8c0.8,0.6,1.3,1.3,1.6,2.4L255,68c-0.3-0.8-0.6-1.4-1.1-1.7s-1.1-0.5-1.8-0.5c-0.8,0-1.6,0.2-2.1,0.6
				s-1,0.9-1.2,1.6c-0.2,0.7-0.3,1.4-0.3,2.1c0,0.9,0.1,1.8,0.4,2.5c0.3,0.7,0.7,1.2,1.3,1.6c0.6,0.3,1.2,0.5,1.9,0.5
				c0.8,0,1.5-0.2,2.1-0.7C254.6,73.5,255,72.8,255.2,71.8z"/>
			<path d="M263.1,75.7v-11h1.5v4.5h5.7v-4.5h1.5v11h-1.5v-5.2h-5.7v5.2H263.1z"/>
			<path d="M287.7,75.7v-11h4.9c1,0,1.7,0.1,2.2,0.3c0.5,0.2,0.9,0.5,1.2,1c0.3,0.5,0.5,1.1,0.5,1.7c0,0.8-0.3,1.4-0.8,2
				c-0.5,0.5-1.3,0.9-2.3,1c0.4,0.2,0.7,0.4,0.9,0.5c0.4,0.4,0.8,0.9,1.2,1.5l1.9,3h-1.8l-1.5-2.3c-0.4-0.7-0.8-1.2-1-1.5
				c-0.3-0.4-0.5-0.6-0.7-0.7c-0.2-0.1-0.4-0.2-0.7-0.3c-0.2,0-0.4-0.1-0.8-0.1h-1.7v4.9H287.7z M289.1,69.5h3.1
				c0.7,0,1.2-0.1,1.6-0.2c0.4-0.1,0.7-0.4,0.9-0.7s0.3-0.6,0.3-1c0-0.5-0.2-0.9-0.6-1.3c-0.4-0.3-1-0.5-1.8-0.5h-3.5V69.5z"/>
			<path d="M302.9,70.3c0-1.8,0.5-3.3,1.5-4.3c1-1,2.2-1.5,3.8-1.5c1,0,1.9,0.2,2.7,0.7s1.4,1.2,1.9,2c0.4,0.9,0.6,1.9,0.6,3
				c0,1.1-0.2,2.1-0.7,3c-0.5,0.9-1.1,1.5-1.9,2c-0.8,0.5-1.7,0.7-2.7,0.7c-1,0-2-0.2-2.8-0.8s-1.4-1.2-1.9-2S302.9,71.3,302.9,70.3
				z M304.4,70.4c0,1.3,0.4,2.4,1.1,3.1s1.6,1.1,2.7,1.1c1.1,0,2-0.4,2.7-1.2c0.7-0.8,1.1-1.9,1.1-3.3c0-0.9-0.2-1.7-0.5-2.3
				s-0.7-1.2-1.3-1.6c-0.6-0.4-1.2-0.6-2-0.6c-1,0-1.9,0.4-2.7,1.1C304.8,67.5,304.4,68.7,304.4,70.4z"/>
			<path d="M318.7,75.7l4.2-11h1.6l4.5,11h-1.7l-1.3-3.3h-4.6l-1.2,3.3H318.7z M321.9,71.2h3.7l-1.1-3c-0.4-0.9-0.6-1.7-0.8-2.3
				c-0.1,0.7-0.3,1.4-0.6,2.1L321.9,71.2z"/>
			<path d="M334.8,75.7v-11h3.8c0.9,0,1.5,0.1,2,0.2c0.6,0.1,1.2,0.4,1.6,0.8c0.6,0.5,1,1.1,1.3,1.9c0.3,0.8,0.4,1.6,0.4,2.6
				c0,0.8-0.1,1.6-0.3,2.2s-0.4,1.2-0.8,1.6c-0.3,0.4-0.6,0.8-1,1c-0.4,0.2-0.8,0.4-1.3,0.6c-0.5,0.1-1.1,0.2-1.8,0.2H334.8z
				 M336.2,74.4h2.3c0.7,0,1.3-0.1,1.7-0.2c0.4-0.1,0.7-0.3,1-0.6c0.3-0.3,0.6-0.8,0.8-1.4c0.2-0.6,0.3-1.3,0.3-2.1
				c0-1.2-0.2-2-0.6-2.7s-0.8-1-1.4-1.2c-0.4-0.1-1-0.2-1.9-0.2h-2.3V74.4z"/>
		</g>
		<g>
			<rect x="135.5" y="58.3" width="207.6" height="0.8"/>
		</g>
	</g>
</g>
</svg>
